<svg width="826" height="915" viewBox="0 0 826 915" fill="none" xmlns="http://www.w3.org/2000/svg">
<rect width="826" height="915" rx="24" fill="#111606"/>
<g filter="url(#filter0_f_90_27)">
<path d="M69.4258 135.188H145.964V154.157H91.8379V178.986H139.226V197.736H91.8379V243H69.4258V135.188ZM168.9 153.645H147.733V134.382H168.9V153.645ZM147.733 163.166H168.9V243H147.733V163.166ZM221.427 161.262C229.679 161.262 236.417 163.435 241.642 167.78C246.915 172.077 249.552 179.23 249.552 189.24V243H228.165V194.44C228.165 190.241 227.604 187.019 226.48 184.772C224.43 180.671 220.523 178.62 214.762 178.62C207.682 178.62 202.823 181.623 200.187 187.629C198.819 190.803 198.136 194.855 198.136 199.787V243H177.335V163.312H197.477V174.958C200.162 170.856 202.701 167.902 205.094 166.096C209.391 162.873 214.835 161.262 221.427 161.262ZM300.906 204.182C299.588 205.012 298.245 205.695 296.878 206.232C295.56 206.721 293.729 207.185 291.385 207.624L286.697 208.503C282.303 209.284 279.153 210.236 277.249 211.359C274.026 213.264 272.415 216.218 272.415 220.222C272.415 223.786 273.392 226.374 275.345 227.985C277.347 229.548 279.764 230.329 282.596 230.329C287.088 230.329 291.214 229.011 294.974 226.374C298.782 223.737 300.76 218.928 300.906 211.945V204.182ZM288.235 194.44C292.093 193.952 294.852 193.342 296.512 192.609C299.49 191.34 300.979 189.362 300.979 186.677C300.979 183.405 299.832 181.159 297.537 179.938C295.291 178.669 291.971 178.034 287.576 178.034C282.645 178.034 279.153 179.255 277.103 181.696C275.638 183.503 274.661 185.944 274.173 189.021H254.031C254.471 182.038 256.424 176.301 259.891 171.809C265.408 164.777 274.881 161.262 288.309 161.262C297.049 161.262 304.812 162.995 311.6 166.462C318.387 169.929 321.78 176.472 321.78 186.091V222.712C321.78 225.251 321.829 228.327 321.927 231.94C322.073 234.675 322.488 236.53 323.172 237.507C323.855 238.483 324.881 239.289 326.248 239.924V243H303.543C302.908 241.389 302.469 239.875 302.225 238.459C301.98 237.043 301.785 235.432 301.639 233.625C298.758 236.75 295.438 239.411 291.678 241.608C287.186 244.196 282.107 245.49 276.443 245.49C269.217 245.49 263.235 243.439 258.499 239.338C253.812 235.188 251.468 229.328 251.468 221.76C251.468 211.945 255.252 204.841 262.82 200.446C266.971 198.054 273.074 196.345 281.131 195.319L288.235 194.44ZM372.622 161.262C380.874 161.262 387.612 163.435 392.837 167.78C398.11 172.077 400.747 179.23 400.747 189.24V243H379.36V194.44C379.36 190.241 378.799 187.019 377.676 184.772C375.625 180.671 371.719 178.62 365.957 178.62C358.877 178.62 354.019 181.623 351.382 187.629C350.015 190.803 349.331 194.855 349.331 199.787V243H328.53V163.312H348.672V174.958C351.357 170.856 353.896 167.902 356.289 166.096C360.586 162.873 366.03 161.262 372.622 161.262ZM455.764 191.804C455.373 188.825 454.372 186.14 452.761 183.747C450.417 180.524 446.779 178.913 441.848 178.913C434.816 178.913 430.007 182.404 427.419 189.387C426.052 193.098 425.368 198.029 425.368 204.182C425.368 210.041 426.052 214.753 427.419 218.317C429.909 224.958 434.597 228.278 441.481 228.278C446.364 228.278 449.831 226.96 451.882 224.323C453.933 221.687 455.178 218.269 455.617 214.069H476.931C476.442 220.417 474.147 226.423 470.046 232.087C463.503 241.218 453.811 245.783 440.969 245.783C428.127 245.783 418.679 241.975 412.624 234.357C406.569 226.74 403.542 216.853 403.542 204.694C403.542 190.974 406.887 180.305 413.576 172.688C420.266 165.07 429.494 161.262 441.262 161.262C451.271 161.262 459.45 163.508 465.798 168C472.194 172.492 475.979 180.427 477.15 191.804H455.764ZM501.039 153.645H479.872V134.382H501.039V153.645ZM479.872 163.166H501.039V243H479.872V163.166ZM553.346 204.182C552.027 205.012 550.685 205.695 549.317 206.232C547.999 206.721 546.168 207.185 543.824 207.624L539.137 208.503C534.742 209.284 531.593 210.236 529.688 211.359C526.466 213.264 524.854 216.218 524.854 220.222C524.854 223.786 525.831 226.374 527.784 227.985C529.786 229.548 532.203 230.329 535.035 230.329C539.527 230.329 543.653 229.011 547.413 226.374C551.222 223.737 553.199 218.928 553.346 211.945V204.182ZM540.675 194.44C544.532 193.952 547.291 193.342 548.951 192.609C551.93 191.34 553.419 189.362 553.419 186.677C553.419 183.405 552.271 181.159 549.977 179.938C547.73 178.669 544.41 178.034 540.016 178.034C535.084 178.034 531.593 179.255 529.542 181.696C528.077 183.503 527.101 185.944 526.612 189.021H506.471C506.91 182.038 508.863 176.301 512.33 171.809C517.848 164.777 527.32 161.262 540.748 161.262C549.488 161.262 557.252 162.995 564.039 166.462C570.826 169.929 574.22 176.472 574.22 186.091V222.712C574.22 225.251 574.269 228.327 574.366 231.94C574.513 234.675 574.928 236.53 575.611 237.507C576.295 238.483 577.32 239.289 578.688 239.924V243H555.982C555.348 241.389 554.908 239.875 554.664 238.459C554.42 237.043 554.225 235.432 554.078 233.625C551.197 236.75 547.877 239.411 544.117 241.608C539.625 244.196 534.547 245.49 528.883 245.49C521.656 245.49 515.675 243.439 510.938 239.338C506.251 235.188 503.907 229.328 503.907 221.76C503.907 211.945 507.691 204.841 515.26 200.446C519.41 198.054 525.514 196.345 533.57 195.319L540.675 194.44ZM602.137 243H581.263V135.041H602.137V243ZM115.422 310.804C115.031 307.825 114.03 305.14 112.419 302.747C110.075 299.524 106.438 297.913 101.506 297.913C94.4746 297.913 89.665 301.404 87.0771 308.387C85.71 312.098 85.0264 317.029 85.0264 323.182C85.0264 329.041 85.71 333.753 87.0771 337.317C89.5674 343.958 94.2549 347.278 101.14 347.278C106.022 347.278 109.489 345.96 111.54 343.323C113.591 340.687 114.836 337.269 115.275 333.069H136.589C136.101 339.417 133.806 345.423 129.704 351.087C123.161 360.218 113.469 364.783 100.627 364.783C87.7852 364.783 78.3369 360.975 72.2822 353.357C66.2275 345.74 63.2002 335.853 63.2002 323.694C63.2002 309.974 66.5449 299.305 73.2344 291.688C79.9238 284.07 89.1523 280.262 100.92 280.262C110.93 280.262 119.108 282.508 125.456 287C131.853 291.492 135.637 299.427 136.809 310.804H115.422ZM160.551 362H139.677V254.041H160.551V362ZM213.004 323.182C211.686 324.012 210.343 324.695 208.976 325.232C207.657 325.721 205.826 326.185 203.482 326.624L198.795 327.503C194.4 328.284 191.251 329.236 189.347 330.359C186.124 332.264 184.513 335.218 184.513 339.222C184.513 342.786 185.489 345.374 187.442 346.985C189.444 348.548 191.861 349.329 194.693 349.329C199.186 349.329 203.312 348.011 207.071 345.374C210.88 342.737 212.857 337.928 213.004 330.945V323.182ZM200.333 313.44C204.19 312.952 206.949 312.342 208.609 311.609C211.588 310.34 213.077 308.362 213.077 305.677C213.077 302.405 211.93 300.159 209.635 298.938C207.389 297.669 204.068 297.034 199.674 297.034C194.742 297.034 191.251 298.255 189.2 300.696C187.735 302.503 186.759 304.944 186.271 308.021H166.129C166.568 301.038 168.521 295.301 171.988 290.809C177.506 283.777 186.979 280.262 200.406 280.262C209.146 280.262 216.91 281.995 223.697 285.462C230.484 288.929 233.878 295.472 233.878 305.091V341.712C233.878 344.251 233.927 347.327 234.024 350.94C234.171 353.675 234.586 355.53 235.27 356.507C235.953 357.483 236.979 358.289 238.346 358.924V362H215.641C215.006 360.389 214.566 358.875 214.322 357.459C214.078 356.043 213.883 354.432 213.736 352.625C210.855 355.75 207.535 358.411 203.775 360.608C199.283 363.196 194.205 364.49 188.541 364.49C181.314 364.49 175.333 362.439 170.597 358.338C165.909 354.188 163.565 348.328 163.565 340.76C163.565 330.945 167.35 323.841 174.918 319.446C179.068 317.054 185.172 315.345 193.229 314.319L200.333 313.44ZM283.841 280.262C284.231 280.262 284.549 280.286 284.793 280.335C285.086 280.335 285.696 280.359 286.624 280.408V301.795C285.306 301.648 284.134 301.551 283.108 301.502C282.083 301.453 281.253 301.429 280.618 301.429C272.22 301.429 266.58 304.163 263.699 309.632C262.088 312.708 261.282 317.444 261.282 323.841V362H240.262V282.166H260.184V296.082C263.406 290.76 266.214 287.122 268.606 285.169C272.513 281.897 277.591 280.262 283.841 280.262ZM308.389 272.645H287.222V253.382H308.389V272.645ZM287.222 282.166H308.389V362H287.222V282.166ZM308.474 297.767V282.898H319.606V260.633H340.261V282.898H353.225V297.767H340.261V339.954C340.261 343.226 340.676 345.276 341.506 346.106C342.336 346.888 344.875 347.278 349.123 347.278C349.758 347.278 350.417 347.278 351.101 347.278C351.833 347.229 352.541 347.181 353.225 347.132V362.732L343.337 363.099C333.474 363.44 326.735 361.731 323.122 357.972C320.778 355.579 319.606 351.893 319.606 346.912V297.767H308.474ZM357.851 377.308L360.487 377.454C362.538 377.552 364.491 377.479 366.347 377.234C368.202 376.99 369.765 376.429 371.034 375.55C372.255 374.72 373.378 372.986 374.403 370.35C375.478 367.713 375.917 366.102 375.722 365.516L346.425 282.166H369.643L387.074 341.053L403.554 282.166H425.746L398.354 360.682C393.08 375.818 388.905 385.193 385.829 388.807C382.753 392.469 376.601 394.3 367.372 394.3C365.517 394.3 364.027 394.275 362.904 394.227C361.781 394.227 360.097 394.153 357.851 394.007V377.308ZM413.893 379.358C418.092 378.187 421.168 376.233 423.121 373.499C425.123 370.765 426.271 366.932 426.563 362H413.893V340.174H436.451V359.07C436.451 362.391 436.012 365.857 435.133 369.471C434.254 373.084 432.618 376.209 430.226 378.846C427.638 381.678 424.586 383.802 421.07 385.218C417.604 386.683 415.211 387.415 413.893 387.415V379.358ZM156.95 399.408C160.466 399.408 163.933 400.092 167.351 401.459C170.769 402.826 173.869 405.219 176.652 408.637C178.898 411.42 180.412 414.838 181.193 418.891C181.682 421.576 181.926 425.507 181.926 430.683L181.779 481H160.393V430.17C160.393 427.143 159.904 424.652 158.928 422.699C157.072 418.988 153.654 417.133 148.674 417.133C142.912 417.133 138.933 419.525 136.735 424.311C135.612 426.85 135.051 429.901 135.051 433.466V481H114.03V433.466C114.03 428.729 113.542 425.287 112.565 423.139C110.808 419.281 107.365 417.353 102.238 417.353C96.2812 417.353 92.2773 419.281 90.2266 423.139C89.1035 425.336 88.542 428.607 88.542 432.953V481H67.375V401.312H87.6631V412.958C90.251 408.808 92.6924 405.854 94.9873 404.096C99.04 400.971 104.289 399.408 110.734 399.408C116.838 399.408 121.77 400.751 125.529 403.437C128.557 405.927 130.852 409.125 132.414 413.031C135.148 408.344 138.542 404.901 142.595 402.704C146.892 400.507 151.677 399.408 156.95 399.408ZM210.648 391.645H189.481V372.382H210.648V391.645ZM189.481 401.166H210.648V481H189.481V401.166ZM263.175 399.262C271.427 399.262 278.165 401.435 283.39 405.78C288.663 410.077 291.3 417.23 291.3 427.24V481H269.913V432.44C269.913 428.241 269.352 425.019 268.229 422.772C266.178 418.671 262.271 416.62 256.51 416.62C249.43 416.62 244.571 419.623 241.935 425.629C240.567 428.803 239.884 432.855 239.884 437.787V481H219.083V401.312H239.225V412.958C241.91 408.856 244.449 405.902 246.842 404.096C251.139 400.873 256.583 399.262 263.175 399.262ZM319.437 401.166V449.286C319.437 453.827 319.974 457.245 321.048 459.54C322.952 463.593 326.688 465.619 332.254 465.619C339.383 465.619 344.266 462.738 346.902 456.977C348.27 453.852 348.953 449.726 348.953 444.599V401.166H370.12V481H349.832V469.721C349.637 469.965 349.148 470.697 348.367 471.918C347.586 473.139 346.658 474.213 345.584 475.141C342.312 478.07 339.139 480.072 336.062 481.146C333.035 482.221 329.471 482.758 325.369 482.758C313.553 482.758 305.594 478.51 301.492 470.014C299.197 465.326 298.05 458.417 298.05 449.286V401.166H319.437ZM394.595 455.512C395.034 459.223 395.986 461.859 397.451 463.422C400.039 466.205 404.824 467.597 411.807 467.597C415.908 467.597 419.155 466.986 421.548 465.766C423.989 464.545 425.21 462.714 425.21 460.272C425.21 457.929 424.233 456.146 422.28 454.926C420.327 453.705 413.076 451.605 400.527 448.627C391.494 446.381 385.122 443.573 381.411 440.204C377.7 436.884 375.845 432.099 375.845 425.849C375.845 418.476 378.726 412.152 384.487 406.879C390.298 401.557 398.452 398.896 408.95 398.896C418.911 398.896 427.017 400.897 433.267 404.901C439.565 408.856 443.179 415.717 444.106 425.482H423.232C422.939 422.797 422.183 420.673 420.962 419.11C418.667 416.278 414.761 414.862 409.243 414.862C404.702 414.862 401.455 415.57 399.502 416.986C397.598 418.402 396.646 420.062 396.646 421.967C396.646 424.359 397.671 426.093 399.722 427.167C401.772 428.29 409.023 430.219 421.475 432.953C429.775 434.906 436.001 437.86 440.151 441.815C444.253 445.819 446.304 450.824 446.304 456.83C446.304 464.74 443.35 471.21 437.441 476.239C431.582 481.22 422.5 483.71 410.195 483.71C397.646 483.71 388.369 481.073 382.363 475.8C376.406 470.478 373.428 463.715 373.428 455.512H394.595ZM471.376 416.767V401.898H482.509V379.633H503.163V401.898H516.127V416.767H503.163V458.954C503.163 462.226 503.578 464.276 504.408 465.106C505.238 465.888 507.777 466.278 512.025 466.278C512.66 466.278 513.319 466.278 514.003 466.278C514.735 466.229 515.443 466.181 516.127 466.132V481.732L506.239 482.099C496.376 482.44 489.638 480.731 486.024 476.972C483.681 474.579 482.509 470.893 482.509 465.912V416.767H471.376ZM561.549 399.115C566.48 399.115 570.948 399.97 574.952 401.679C579.005 403.388 582.325 406 584.913 409.516C587.11 412.494 588.453 415.57 588.941 418.744C589.43 421.869 589.674 426.996 589.674 434.125V481H568.36V432.44C568.36 428.144 567.628 424.677 566.163 422.04C564.259 418.329 560.646 416.474 555.323 416.474C549.806 416.474 545.606 418.329 542.726 422.04C539.894 425.702 538.478 430.951 538.478 437.787V481H517.677V373.407H538.478V411.566C541.505 406.928 544.996 403.705 548.951 401.898C552.955 400.043 557.154 399.115 561.549 399.115ZM628.724 416.254C623.89 416.254 620.13 417.768 617.444 420.795C614.808 423.822 613.147 427.924 612.464 433.1H644.91C644.568 427.582 642.884 423.407 639.856 420.575C636.878 417.694 633.167 416.254 628.724 416.254ZM628.724 399.042C635.364 399.042 641.346 400.287 646.668 402.777C651.99 405.268 656.385 409.198 659.852 414.569C662.977 419.306 665.003 424.799 665.931 431.049C666.468 434.711 666.688 439.984 666.59 446.869H611.951C612.244 454.877 614.759 460.492 619.495 463.715C622.376 465.717 625.843 466.718 629.896 466.718C634.192 466.718 637.684 465.497 640.369 463.056C641.834 461.737 643.128 459.906 644.251 457.562H665.564C665.027 462.299 662.562 467.108 658.167 471.991C651.331 479.755 641.761 483.637 629.456 483.637C619.3 483.637 610.34 480.365 602.576 473.822C594.812 467.279 590.931 456.635 590.931 441.889C590.931 428.07 594.422 417.475 601.404 410.102C608.436 402.729 617.542 399.042 628.724 399.042ZM156.95 518.408C160.466 518.408 163.933 519.092 167.351 520.459C170.769 521.826 173.869 524.219 176.652 527.637C178.898 530.42 180.412 533.838 181.193 537.891C181.682 540.576 181.926 544.507 181.926 549.683L181.779 600H160.393V549.17C160.393 546.143 159.904 543.652 158.928 541.699C157.072 537.988 153.654 536.133 148.674 536.133C142.912 536.133 138.933 538.525 136.735 543.311C135.612 545.85 135.051 548.901 135.051 552.466V600H114.03V552.466C114.03 547.729 113.542 544.287 112.565 542.139C110.808 538.281 107.365 536.353 102.238 536.353C96.2812 536.353 92.2773 538.281 90.2266 542.139C89.1035 544.336 88.542 547.607 88.542 551.953V600H67.375V520.312H87.6631V531.958C90.251 527.808 92.6924 524.854 94.9873 523.096C99.04 519.971 104.289 518.408 110.734 518.408C116.838 518.408 121.77 519.751 125.529 522.437C128.557 524.927 130.852 528.125 132.414 532.031C135.148 527.344 138.542 523.901 142.595 521.704C146.892 519.507 151.677 518.408 156.95 518.408ZM220.683 535.254C215.849 535.254 212.089 536.768 209.403 539.795C206.767 542.822 205.106 546.924 204.423 552.1H236.869C236.527 546.582 234.843 542.407 231.815 539.575C228.837 536.694 225.126 535.254 220.683 535.254ZM220.683 518.042C227.323 518.042 233.305 519.287 238.627 521.777C243.949 524.268 248.344 528.198 251.811 533.569C254.936 538.306 256.962 543.799 257.89 550.049C258.427 553.711 258.646 558.984 258.549 565.869H203.91C204.203 573.877 206.718 579.492 211.454 582.715C214.335 584.717 217.802 585.718 221.854 585.718C226.151 585.718 229.643 584.497 232.328 582.056C233.793 580.737 235.087 578.906 236.21 576.562H257.523C256.986 581.299 254.521 586.108 250.126 590.991C243.29 598.755 233.72 602.637 221.415 602.637C211.259 602.637 202.299 599.365 194.535 592.822C186.771 586.279 182.89 575.635 182.89 560.889C182.89 547.07 186.381 536.475 193.363 529.102C200.395 521.729 209.501 518.042 220.683 518.042ZM276.944 574.512C277.384 578.223 278.336 580.859 279.801 582.422C282.389 585.205 287.174 586.597 294.156 586.597C298.258 586.597 301.505 585.986 303.897 584.766C306.339 583.545 307.56 581.714 307.56 579.272C307.56 576.929 306.583 575.146 304.63 573.926C302.677 572.705 295.426 570.605 282.877 567.627C273.844 565.381 267.472 562.573 263.761 559.204C260.05 555.884 258.194 551.099 258.194 544.849C258.194 537.476 261.075 531.152 266.837 525.879C272.647 520.557 280.802 517.896 291.3 517.896C301.261 517.896 309.366 519.897 315.616 523.901C321.915 527.856 325.528 534.717 326.456 544.482H305.582C305.289 541.797 304.532 539.673 303.312 538.11C301.017 535.278 297.11 533.862 291.593 533.862C287.052 533.862 283.805 534.57 281.852 535.986C279.947 537.402 278.995 539.062 278.995 540.967C278.995 543.359 280.021 545.093 282.071 546.167C284.122 547.29 291.373 549.219 303.824 551.953C312.125 553.906 318.351 556.86 322.501 560.815C326.603 564.819 328.653 569.824 328.653 575.83C328.653 583.74 325.699 590.21 319.791 595.239C313.932 600.22 304.85 602.71 292.545 602.71C279.996 602.71 270.719 600.073 264.713 594.8C258.756 589.478 255.777 582.715 255.777 574.512H276.944ZM348.44 574.512C348.88 578.223 349.832 580.859 351.297 582.422C353.885 585.205 358.67 586.597 365.652 586.597C369.754 586.597 373.001 585.986 375.394 584.766C377.835 583.545 379.056 581.714 379.056 579.272C379.056 576.929 378.079 575.146 376.126 573.926C374.173 572.705 366.922 570.605 354.373 567.627C345.34 565.381 338.968 562.573 335.257 559.204C331.546 555.884 329.69 551.099 329.69 544.849C329.69 537.476 332.571 531.152 338.333 525.879C344.144 520.557 352.298 517.896 362.796 517.896C372.757 517.896 380.862 519.897 387.112 523.901C393.411 527.856 397.024 534.717 397.952 544.482H377.078C376.785 541.797 376.028 539.673 374.808 538.11C372.513 535.278 368.606 533.862 363.089 533.862C358.548 533.862 355.301 534.57 353.348 535.986C351.443 537.402 350.491 539.062 350.491 540.967C350.491 543.359 351.517 545.093 353.567 546.167C355.618 547.29 362.869 549.219 375.32 551.953C383.621 553.906 389.847 556.86 393.997 560.815C398.099 564.819 400.149 569.824 400.149 575.83C400.149 583.74 397.195 590.21 391.287 595.239C385.428 600.22 376.346 602.71 364.041 602.71C351.492 602.71 342.215 600.073 336.209 594.8C330.252 589.478 327.273 582.715 327.273 574.512H348.44ZM403.311 578.174H425.503V600H403.311V578.174Z" fill="#D3FF61"/>
<path d="M69.4258 135.188H145.964V154.157H91.8379V178.986H139.226V197.736H91.8379V243H69.4258V135.188ZM168.9 153.645H147.733V134.382H168.9V153.645ZM147.733 163.166H168.9V243H147.733V163.166ZM221.427 161.262C229.679 161.262 236.417 163.435 241.642 167.78C246.915 172.077 249.552 179.23 249.552 189.24V243H228.165V194.44C228.165 190.241 227.604 187.019 226.48 184.772C224.43 180.671 220.523 178.62 214.762 178.62C207.682 178.62 202.823 181.623 200.187 187.629C198.819 190.803 198.136 194.855 198.136 199.787V243H177.335V163.312H197.477V174.958C200.162 170.856 202.701 167.902 205.094 166.096C209.391 162.873 214.835 161.262 221.427 161.262ZM300.906 204.182C299.588 205.012 298.245 205.695 296.878 206.232C295.56 206.721 293.729 207.185 291.385 207.624L286.697 208.503C282.303 209.284 279.153 210.236 277.249 211.359C274.026 213.264 272.415 216.218 272.415 220.222C272.415 223.786 273.392 226.374 275.345 227.985C277.347 229.548 279.764 230.329 282.596 230.329C287.088 230.329 291.214 229.011 294.974 226.374C298.782 223.737 300.76 218.928 300.906 211.945V204.182ZM288.235 194.44C292.093 193.952 294.852 193.342 296.512 192.609C299.49 191.34 300.979 189.362 300.979 186.677C300.979 183.405 299.832 181.159 297.537 179.938C295.291 178.669 291.971 178.034 287.576 178.034C282.645 178.034 279.153 179.255 277.103 181.696C275.638 183.503 274.661 185.944 274.173 189.021H254.031C254.471 182.038 256.424 176.301 259.891 171.809C265.408 164.777 274.881 161.262 288.309 161.262C297.049 161.262 304.812 162.995 311.6 166.462C318.387 169.929 321.78 176.472 321.78 186.091V222.712C321.78 225.251 321.829 228.327 321.927 231.94C322.073 234.675 322.488 236.53 323.172 237.507C323.855 238.483 324.881 239.289 326.248 239.924V243H303.543C302.908 241.389 302.469 239.875 302.225 238.459C301.98 237.043 301.785 235.432 301.639 233.625C298.758 236.75 295.438 239.411 291.678 241.608C287.186 244.196 282.107 245.49 276.443 245.49C269.217 245.49 263.235 243.439 258.499 239.338C253.812 235.188 251.468 229.328 251.468 221.76C251.468 211.945 255.252 204.841 262.82 200.446C266.971 198.054 273.074 196.345 281.131 195.319L288.235 194.44ZM372.622 161.262C380.874 161.262 387.612 163.435 392.837 167.78C398.11 172.077 400.747 179.23 400.747 189.24V243H379.36V194.44C379.36 190.241 378.799 187.019 377.676 184.772C375.625 180.671 371.719 178.62 365.957 178.62C358.877 178.62 354.019 181.623 351.382 187.629C350.015 190.803 349.331 194.855 349.331 199.787V243H328.53V163.312H348.672V174.958C351.357 170.856 353.896 167.902 356.289 166.096C360.586 162.873 366.03 161.262 372.622 161.262ZM455.764 191.804C455.373 188.825 454.372 186.14 452.761 183.747C450.417 180.524 446.779 178.913 441.848 178.913C434.816 178.913 430.007 182.404 427.419 189.387C426.052 193.098 425.368 198.029 425.368 204.182C425.368 210.041 426.052 214.753 427.419 218.317C429.909 224.958 434.597 228.278 441.481 228.278C446.364 228.278 449.831 226.96 451.882 224.323C453.933 221.687 455.178 218.269 455.617 214.069H476.931C476.442 220.417 474.147 226.423 470.046 232.087C463.503 241.218 453.811 245.783 440.969 245.783C428.127 245.783 418.679 241.975 412.624 234.357C406.569 226.74 403.542 216.853 403.542 204.694C403.542 190.974 406.887 180.305 413.576 172.688C420.266 165.07 429.494 161.262 441.262 161.262C451.271 161.262 459.45 163.508 465.798 168C472.194 172.492 475.979 180.427 477.15 191.804H455.764ZM501.039 153.645H479.872V134.382H501.039V153.645ZM479.872 163.166H501.039V243H479.872V163.166ZM553.346 204.182C552.027 205.012 550.685 205.695 549.317 206.232C547.999 206.721 546.168 207.185 543.824 207.624L539.137 208.503C534.742 209.284 531.593 210.236 529.688 211.359C526.466 213.264 524.854 216.218 524.854 220.222C524.854 223.786 525.831 226.374 527.784 227.985C529.786 229.548 532.203 230.329 535.035 230.329C539.527 230.329 543.653 229.011 547.413 226.374C551.222 223.737 553.199 218.928 553.346 211.945V204.182ZM540.675 194.44C544.532 193.952 547.291 193.342 548.951 192.609C551.93 191.34 553.419 189.362 553.419 186.677C553.419 183.405 552.271 181.159 549.977 179.938C547.73 178.669 544.41 178.034 540.016 178.034C535.084 178.034 531.593 179.255 529.542 181.696C528.077 183.503 527.101 185.944 526.612 189.021H506.471C506.91 182.038 508.863 176.301 512.33 171.809C517.848 164.777 527.32 161.262 540.748 161.262C549.488 161.262 557.252 162.995 564.039 166.462C570.826 169.929 574.22 176.472 574.22 186.091V222.712C574.22 225.251 574.269 228.327 574.366 231.94C574.513 234.675 574.928 236.53 575.611 237.507C576.295 238.483 577.32 239.289 578.688 239.924V243H555.982C555.348 241.389 554.908 239.875 554.664 238.459C554.42 237.043 554.225 235.432 554.078 233.625C551.197 236.75 547.877 239.411 544.117 241.608C539.625 244.196 534.547 245.49 528.883 245.49C521.656 245.49 515.675 243.439 510.938 239.338C506.251 235.188 503.907 229.328 503.907 221.76C503.907 211.945 507.691 204.841 515.26 200.446C519.41 198.054 525.514 196.345 533.57 195.319L540.675 194.44ZM602.137 243H581.263V135.041H602.137V243ZM115.422 310.804C115.031 307.825 114.03 305.14 112.419 302.747C110.075 299.524 106.438 297.913 101.506 297.913C94.4746 297.913 89.665 301.404 87.0771 308.387C85.71 312.098 85.0264 317.029 85.0264 323.182C85.0264 329.041 85.71 333.753 87.0771 337.317C89.5674 343.958 94.2549 347.278 101.14 347.278C106.022 347.278 109.489 345.96 111.54 343.323C113.591 340.687 114.836 337.269 115.275 333.069H136.589C136.101 339.417 133.806 345.423 129.704 351.087C123.161 360.218 113.469 364.783 100.627 364.783C87.7852 364.783 78.3369 360.975 72.2822 353.357C66.2275 345.74 63.2002 335.853 63.2002 323.694C63.2002 309.974 66.5449 299.305 73.2344 291.688C79.9238 284.07 89.1523 280.262 100.92 280.262C110.93 280.262 119.108 282.508 125.456 287C131.853 291.492 135.637 299.427 136.809 310.804H115.422ZM160.551 362H139.677V254.041H160.551V362ZM213.004 323.182C211.686 324.012 210.343 324.695 208.976 325.232C207.657 325.721 205.826 326.185 203.482 326.624L198.795 327.503C194.4 328.284 191.251 329.236 189.347 330.359C186.124 332.264 184.513 335.218 184.513 339.222C184.513 342.786 185.489 345.374 187.442 346.985C189.444 348.548 191.861 349.329 194.693 349.329C199.186 349.329 203.312 348.011 207.071 345.374C210.88 342.737 212.857 337.928 213.004 330.945V323.182ZM200.333 313.44C204.19 312.952 206.949 312.342 208.609 311.609C211.588 310.34 213.077 308.362 213.077 305.677C213.077 302.405 211.93 300.159 209.635 298.938C207.389 297.669 204.068 297.034 199.674 297.034C194.742 297.034 191.251 298.255 189.2 300.696C187.735 302.503 186.759 304.944 186.271 308.021H166.129C166.568 301.038 168.521 295.301 171.988 290.809C177.506 283.777 186.979 280.262 200.406 280.262C209.146 280.262 216.91 281.995 223.697 285.462C230.484 288.929 233.878 295.472 233.878 305.091V341.712C233.878 344.251 233.927 347.327 234.024 350.94C234.171 353.675 234.586 355.53 235.27 356.507C235.953 357.483 236.979 358.289 238.346 358.924V362H215.641C215.006 360.389 214.566 358.875 214.322 357.459C214.078 356.043 213.883 354.432 213.736 352.625C210.855 355.75 207.535 358.411 203.775 360.608C199.283 363.196 194.205 364.49 188.541 364.49C181.314 364.49 175.333 362.439 170.597 358.338C165.909 354.188 163.565 348.328 163.565 340.76C163.565 330.945 167.35 323.841 174.918 319.446C179.068 317.054 185.172 315.345 193.229 314.319L200.333 313.44ZM283.841 280.262C284.231 280.262 284.549 280.286 284.793 280.335C285.086 280.335 285.696 280.359 286.624 280.408V301.795C285.306 301.648 284.134 301.551 283.108 301.502C282.083 301.453 281.253 301.429 280.618 301.429C272.22 301.429 266.58 304.163 263.699 309.632C262.088 312.708 261.282 317.444 261.282 323.841V362H240.262V282.166H260.184V296.082C263.406 290.76 266.214 287.122 268.606 285.169C272.513 281.897 277.591 280.262 283.841 280.262ZM308.389 272.645H287.222V253.382H308.389V272.645ZM287.222 282.166H308.389V362H287.222V282.166ZM308.474 297.767V282.898H319.606V260.633H340.261V282.898H353.225V297.767H340.261V339.954C340.261 343.226 340.676 345.276 341.506 346.106C342.336 346.888 344.875 347.278 349.123 347.278C349.758 347.278 350.417 347.278 351.101 347.278C351.833 347.229 352.541 347.181 353.225 347.132V362.732L343.337 363.099C333.474 363.44 326.735 361.731 323.122 357.972C320.778 355.579 319.606 351.893 319.606 346.912V297.767H308.474ZM357.851 377.308L360.487 377.454C362.538 377.552 364.491 377.479 366.347 377.234C368.202 376.99 369.765 376.429 371.034 375.55C372.255 374.72 373.378 372.986 374.403 370.35C375.478 367.713 375.917 366.102 375.722 365.516L346.425 282.166H369.643L387.074 341.053L403.554 282.166H425.746L398.354 360.682C393.08 375.818 388.905 385.193 385.829 388.807C382.753 392.469 376.601 394.3 367.372 394.3C365.517 394.3 364.027 394.275 362.904 394.227C361.781 394.227 360.097 394.153 357.851 394.007V377.308ZM413.893 379.358C418.092 378.187 421.168 376.233 423.121 373.499C425.123 370.765 426.271 366.932 426.563 362H413.893V340.174H436.451V359.07C436.451 362.391 436.012 365.857 435.133 369.471C434.254 373.084 432.618 376.209 430.226 378.846C427.638 381.678 424.586 383.802 421.07 385.218C417.604 386.683 415.211 387.415 413.893 387.415V379.358ZM156.95 399.408C160.466 399.408 163.933 400.092 167.351 401.459C170.769 402.826 173.869 405.219 176.652 408.637C178.898 411.42 180.412 414.838 181.193 418.891C181.682 421.576 181.926 425.507 181.926 430.683L181.779 481H160.393V430.17C160.393 427.143 159.904 424.652 158.928 422.699C157.072 418.988 153.654 417.133 148.674 417.133C142.912 417.133 138.933 419.525 136.735 424.311C135.612 426.85 135.051 429.901 135.051 433.466V481H114.03V433.466C114.03 428.729 113.542 425.287 112.565 423.139C110.808 419.281 107.365 417.353 102.238 417.353C96.2812 417.353 92.2773 419.281 90.2266 423.139C89.1035 425.336 88.542 428.607 88.542 432.953V481H67.375V401.312H87.6631V412.958C90.251 408.808 92.6924 405.854 94.9873 404.096C99.04 400.971 104.289 399.408 110.734 399.408C116.838 399.408 121.77 400.751 125.529 403.437C128.557 405.927 130.852 409.125 132.414 413.031C135.148 408.344 138.542 404.901 142.595 402.704C146.892 400.507 151.677 399.408 156.95 399.408ZM210.648 391.645H189.481V372.382H210.648V391.645ZM189.481 401.166H210.648V481H189.481V401.166ZM263.175 399.262C271.427 399.262 278.165 401.435 283.39 405.78C288.663 410.077 291.3 417.23 291.3 427.24V481H269.913V432.44C269.913 428.241 269.352 425.019 268.229 422.772C266.178 418.671 262.271 416.62 256.51 416.62C249.43 416.62 244.571 419.623 241.935 425.629C240.567 428.803 239.884 432.855 239.884 437.787V481H219.083V401.312H239.225V412.958C241.91 408.856 244.449 405.902 246.842 404.096C251.139 400.873 256.583 399.262 263.175 399.262ZM319.437 401.166V449.286C319.437 453.827 319.974 457.245 321.048 459.54C322.952 463.593 326.688 465.619 332.254 465.619C339.383 465.619 344.266 462.738 346.902 456.977C348.27 453.852 348.953 449.726 348.953 444.599V401.166H370.12V481H349.832V469.721C349.637 469.965 349.148 470.697 348.367 471.918C347.586 473.139 346.658 474.213 345.584 475.141C342.312 478.07 339.139 480.072 336.062 481.146C333.035 482.221 329.471 482.758 325.369 482.758C313.553 482.758 305.594 478.51 301.492 470.014C299.197 465.326 298.05 458.417 298.05 449.286V401.166H319.437ZM394.595 455.512C395.034 459.223 395.986 461.859 397.451 463.422C400.039 466.205 404.824 467.597 411.807 467.597C415.908 467.597 419.155 466.986 421.548 465.766C423.989 464.545 425.21 462.714 425.21 460.272C425.21 457.929 424.233 456.146 422.28 454.926C420.327 453.705 413.076 451.605 400.527 448.627C391.494 446.381 385.122 443.573 381.411 440.204C377.7 436.884 375.845 432.099 375.845 425.849C375.845 418.476 378.726 412.152 384.487 406.879C390.298 401.557 398.452 398.896 408.95 398.896C418.911 398.896 427.017 400.897 433.267 404.901C439.565 408.856 443.179 415.717 444.106 425.482H423.232C422.939 422.797 422.183 420.673 420.962 419.11C418.667 416.278 414.761 414.862 409.243 414.862C404.702 414.862 401.455 415.57 399.502 416.986C397.598 418.402 396.646 420.062 396.646 421.967C396.646 424.359 397.671 426.093 399.722 427.167C401.772 428.29 409.023 430.219 421.475 432.953C429.775 434.906 436.001 437.86 440.151 441.815C444.253 445.819 446.304 450.824 446.304 456.83C446.304 464.74 443.35 471.21 437.441 476.239C431.582 481.22 422.5 483.71 410.195 483.71C397.646 483.71 388.369 481.073 382.363 475.8C376.406 470.478 373.428 463.715 373.428 455.512H394.595ZM471.376 416.767V401.898H482.509V379.633H503.163V401.898H516.127V416.767H503.163V458.954C503.163 462.226 503.578 464.276 504.408 465.106C505.238 465.888 507.777 466.278 512.025 466.278C512.66 466.278 513.319 466.278 514.003 466.278C514.735 466.229 515.443 466.181 516.127 466.132V481.732L506.239 482.099C496.376 482.44 489.638 480.731 486.024 476.972C483.681 474.579 482.509 470.893 482.509 465.912V416.767H471.376ZM561.549 399.115C566.48 399.115 570.948 399.97 574.952 401.679C579.005 403.388 582.325 406 584.913 409.516C587.11 412.494 588.453 415.57 588.941 418.744C589.43 421.869 589.674 426.996 589.674 434.125V481H568.36V432.44C568.36 428.144 567.628 424.677 566.163 422.04C564.259 418.329 560.646 416.474 555.323 416.474C549.806 416.474 545.606 418.329 542.726 422.04C539.894 425.702 538.478 430.951 538.478 437.787V481H517.677V373.407H538.478V411.566C541.505 406.928 544.996 403.705 548.951 401.898C552.955 400.043 557.154 399.115 561.549 399.115ZM628.724 416.254C623.89 416.254 620.13 417.768 617.444 420.795C614.808 423.822 613.147 427.924 612.464 433.1H644.91C644.568 427.582 642.884 423.407 639.856 420.575C636.878 417.694 633.167 416.254 628.724 416.254ZM628.724 399.042C635.364 399.042 641.346 400.287 646.668 402.777C651.99 405.268 656.385 409.198 659.852 414.569C662.977 419.306 665.003 424.799 665.931 431.049C666.468 434.711 666.688 439.984 666.59 446.869H611.951C612.244 454.877 614.759 460.492 619.495 463.715C622.376 465.717 625.843 466.718 629.896 466.718C634.192 466.718 637.684 465.497 640.369 463.056C641.834 461.737 643.128 459.906 644.251 457.562H665.564C665.027 462.299 662.562 467.108 658.167 471.991C651.331 479.755 641.761 483.637 629.456 483.637C619.3 483.637 610.34 480.365 602.576 473.822C594.812 467.279 590.931 456.635 590.931 441.889C590.931 428.07 594.422 417.475 601.404 410.102C608.436 402.729 617.542 399.042 628.724 399.042ZM156.95 518.408C160.466 518.408 163.933 519.092 167.351 520.459C170.769 521.826 173.869 524.219 176.652 527.637C178.898 530.42 180.412 533.838 181.193 537.891C181.682 540.576 181.926 544.507 181.926 549.683L181.779 600H160.393V549.17C160.393 546.143 159.904 543.652 158.928 541.699C157.072 537.988 153.654 536.133 148.674 536.133C142.912 536.133 138.933 538.525 136.735 543.311C135.612 545.85 135.051 548.901 135.051 552.466V600H114.03V552.466C114.03 547.729 113.542 544.287 112.565 542.139C110.808 538.281 107.365 536.353 102.238 536.353C96.2812 536.353 92.2773 538.281 90.2266 542.139C89.1035 544.336 88.542 547.607 88.542 551.953V600H67.375V520.312H87.6631V531.958C90.251 527.808 92.6924 524.854 94.9873 523.096C99.04 519.971 104.289 518.408 110.734 518.408C116.838 518.408 121.77 519.751 125.529 522.437C128.557 524.927 130.852 528.125 132.414 532.031C135.148 527.344 138.542 523.901 142.595 521.704C146.892 519.507 151.677 518.408 156.95 518.408ZM220.683 535.254C215.849 535.254 212.089 536.768 209.403 539.795C206.767 542.822 205.106 546.924 204.423 552.1H236.869C236.527 546.582 234.843 542.407 231.815 539.575C228.837 536.694 225.126 535.254 220.683 535.254ZM220.683 518.042C227.323 518.042 233.305 519.287 238.627 521.777C243.949 524.268 248.344 528.198 251.811 533.569C254.936 538.306 256.962 543.799 257.89 550.049C258.427 553.711 258.646 558.984 258.549 565.869H203.91C204.203 573.877 206.718 579.492 211.454 582.715C214.335 584.717 217.802 585.718 221.854 585.718C226.151 585.718 229.643 584.497 232.328 582.056C233.793 580.737 235.087 578.906 236.21 576.562H257.523C256.986 581.299 254.521 586.108 250.126 590.991C243.29 598.755 233.72 602.637 221.415 602.637C211.259 602.637 202.299 599.365 194.535 592.822C186.771 586.279 182.89 575.635 182.89 560.889C182.89 547.07 186.381 536.475 193.363 529.102C200.395 521.729 209.501 518.042 220.683 518.042ZM276.944 574.512C277.384 578.223 278.336 580.859 279.801 582.422C282.389 585.205 287.174 586.597 294.156 586.597C298.258 586.597 301.505 585.986 303.897 584.766C306.339 583.545 307.56 581.714 307.56 579.272C307.56 576.929 306.583 575.146 304.63 573.926C302.677 572.705 295.426 570.605 282.877 567.627C273.844 565.381 267.472 562.573 263.761 559.204C260.05 555.884 258.194 551.099 258.194 544.849C258.194 537.476 261.075 531.152 266.837 525.879C272.647 520.557 280.802 517.896 291.3 517.896C301.261 517.896 309.366 519.897 315.616 523.901C321.915 527.856 325.528 534.717 326.456 544.482H305.582C305.289 541.797 304.532 539.673 303.312 538.11C301.017 535.278 297.11 533.862 291.593 533.862C287.052 533.862 283.805 534.57 281.852 535.986C279.947 537.402 278.995 539.062 278.995 540.967C278.995 543.359 280.021 545.093 282.071 546.167C284.122 547.29 291.373 549.219 303.824 551.953C312.125 553.906 318.351 556.86 322.501 560.815C326.603 564.819 328.653 569.824 328.653 575.83C328.653 583.74 325.699 590.21 319.791 595.239C313.932 600.22 304.85 602.71 292.545 602.71C279.996 602.71 270.719 600.073 264.713 594.8C258.756 589.478 255.777 582.715 255.777 574.512H276.944ZM348.44 574.512C348.88 578.223 349.832 580.859 351.297 582.422C353.885 585.205 358.67 586.597 365.652 586.597C369.754 586.597 373.001 585.986 375.394 584.766C377.835 583.545 379.056 581.714 379.056 579.272C379.056 576.929 378.079 575.146 376.126 573.926C374.173 572.705 366.922 570.605 354.373 567.627C345.34 565.381 338.968 562.573 335.257 559.204C331.546 555.884 329.69 551.099 329.69 544.849C329.69 537.476 332.571 531.152 338.333 525.879C344.144 520.557 352.298 517.896 362.796 517.896C372.757 517.896 380.862 519.897 387.112 523.901C393.411 527.856 397.024 534.717 397.952 544.482H377.078C376.785 541.797 376.028 539.673 374.808 538.11C372.513 535.278 368.606 533.862 363.089 533.862C358.548 533.862 355.301 534.57 353.348 535.986C351.443 537.402 350.491 539.062 350.491 540.967C350.491 543.359 351.517 545.093 353.567 546.167C355.618 547.29 362.869 549.219 375.32 551.953C383.621 553.906 389.847 556.86 393.997 560.815C398.099 564.819 400.149 569.824 400.149 575.83C400.149 583.74 397.195 590.21 391.287 595.239C385.428 600.22 376.346 602.71 364.041 602.71C351.492 602.71 342.215 600.073 336.209 594.8C330.252 589.478 327.273 582.715 327.273 574.512H348.44ZM403.311 578.174H425.503V600H403.311V578.174Z" fill="black" fill-opacity="0.2"/>
</g>
<rect x="133" y="765" width="35" height="33" rx="16.5" fill="white"/>
<path d="M146.32 778.234V776.34C147.199 776.301 147.814 776.242 148.166 776.164C148.726 776.04 149.182 775.793 149.533 775.422C149.774 775.168 149.956 774.829 150.08 774.406C150.152 774.152 150.188 773.964 150.188 773.84H152.502V788H149.65V778.234H146.32Z" fill="black"/>
<path d="M73.0458 832V820.368H74.9498V831.216L74.0298 830.208H79.7978V832H73.0458ZM84.5769 832.12C83.7716 832.12 83.0703 831.947 82.4729 831.6C81.8756 831.253 81.4116 830.744 81.0809 830.072C80.7503 829.395 80.5849 828.565 80.5849 827.584C80.5849 826.656 80.7583 825.856 81.1049 825.184C81.4569 824.512 81.9369 823.997 82.5449 823.64C83.1529 823.277 83.8409 823.096 84.6089 823.096C85.4409 823.096 86.1529 823.277 86.7449 823.64C87.3423 823.997 87.8009 824.512 88.1209 825.184C88.4409 825.856 88.6009 826.656 88.6009 827.584C88.6009 828.565 88.4223 829.395 88.0649 830.072C87.7129 830.744 87.2329 831.253 86.6249 831.6C86.0169 831.947 85.3343 832.12 84.5769 832.12ZM84.6089 830.512C85.2223 830.512 85.7236 830.283 86.1129 829.824C86.5023 829.365 86.6969 828.619 86.6969 827.584C86.6969 826.624 86.5076 825.904 86.1289 825.424C85.7503 824.944 85.2329 824.704 84.5769 824.704C83.9636 824.704 83.4623 824.941 83.0729 825.416C82.6889 825.891 82.4969 826.613 82.4969 827.584C82.4969 828.571 82.6916 829.307 83.0809 829.792C83.4756 830.272 83.9849 830.512 84.6089 830.512ZM93.9931 835.568C93.2837 835.568 92.6437 835.451 92.0731 835.216C91.5077 834.987 91.0704 834.635 90.7611 834.16C90.4517 833.685 90.3317 833.091 90.4011 832.376H92.2251C92.2197 832.68 92.2571 832.952 92.3371 833.192C92.4171 833.437 92.5851 833.632 92.8411 833.776C93.0971 833.92 93.4864 833.992 94.0091 833.992C94.4624 833.992 94.8091 833.928 95.0491 833.8C95.2944 833.672 95.4597 833.477 95.5451 833.216C95.6304 832.955 95.6731 832.616 95.6731 832.2V829.832C95.6251 830.083 95.5211 830.347 95.3611 830.624C95.2011 830.901 94.9531 831.136 94.6171 831.328C94.2811 831.515 93.8277 831.608 93.2571 831.608C92.7397 831.608 92.2784 831.493 91.8731 831.264C91.4677 831.035 91.1237 830.725 90.8411 830.336C90.5584 829.947 90.3424 829.509 90.1931 829.024C90.0491 828.533 89.9771 828.027 89.9771 827.504C89.9771 826.533 90.1371 825.723 90.4571 825.072C90.7824 824.421 91.2011 823.931 91.7131 823.6C92.2251 823.269 92.7664 823.104 93.3371 823.104C93.8437 823.104 94.2517 823.173 94.5611 823.312C94.8757 823.451 95.1211 823.619 95.2971 823.816C95.4731 824.013 95.6011 824.208 95.6811 824.4L95.6891 823.272H97.5371V832.184C97.5371 832.973 97.3824 833.616 97.0731 834.112C96.7691 834.608 96.3504 834.971 95.8171 835.2C95.2837 835.435 94.6757 835.557 93.9931 835.568ZM93.9051 830.096C94.3051 830.096 94.6277 830.043 94.8731 829.936C95.1184 829.824 95.3051 829.693 95.4331 829.544C95.5611 829.389 95.6411 829.256 95.6731 829.144V825.488C95.6197 825.36 95.5211 825.235 95.3771 825.112C95.2331 824.989 95.0437 824.888 94.8091 824.808C94.5744 824.728 94.2864 824.688 93.9451 824.688C93.3531 824.688 92.8677 824.907 92.4891 825.344C92.1104 825.781 91.9211 826.467 91.9211 827.4C91.9211 828.248 92.1077 828.909 92.4811 829.384C92.8597 829.859 93.3344 830.096 93.9051 830.096ZM99.8961 832V823.272H101.808L101.784 832H99.8961ZM100.864 821.976C100.517 821.976 100.224 821.856 99.9841 821.616C99.7441 821.371 99.6241 821.059 99.6241 820.68C99.6241 820.307 99.7441 820.003 99.9841 819.768C100.224 819.533 100.517 819.416 100.864 819.416C101.2 819.416 101.488 819.533 101.728 819.768C101.973 820.003 102.096 820.307 102.096 820.68C102.096 821.059 101.973 821.371 101.728 821.616C101.488 821.856 101.2 821.976 100.864 821.976ZM104.177 832V823.272H105.793L106.001 826.56L105.865 825.896C105.929 825.416 106.054 824.963 106.241 824.536C106.433 824.104 106.718 823.755 107.097 823.488C107.476 823.221 107.982 823.088 108.617 823.088C109.444 823.088 110.084 823.347 110.537 823.864C110.99 824.376 111.217 825.16 111.217 826.216V832H109.329V826.872C109.329 826.371 109.278 825.968 109.177 825.664C109.081 825.36 108.924 825.141 108.705 825.008C108.486 824.869 108.196 824.8 107.833 824.8C107.438 824.8 107.078 824.917 106.753 825.152C106.433 825.381 106.204 825.643 106.065 825.936V832H104.177ZM119.083 832.128C118.39 832.128 117.848 831.952 117.459 831.6C117.075 831.243 116.883 830.733 116.883 830.072V825.656C116.883 825.48 116.92 825.323 116.995 825.184C117.07 825.04 117.179 824.949 117.323 824.912L116.883 823.616V823.384L117.307 820.768H118.747V829.6C118.747 829.909 118.814 830.125 118.947 830.248C119.086 830.371 119.342 830.432 119.715 830.432C119.955 830.432 120.176 830.432 120.379 830.432C120.582 830.427 120.766 830.421 120.931 830.416V832.024C120.654 832.072 120.35 832.101 120.019 832.112C119.688 832.123 119.376 832.128 119.083 832.128ZM115.739 824.912V823.272H120.947V824.912H115.739ZM125.936 832.12C125.131 832.12 124.43 831.947 123.832 831.6C123.235 831.253 122.771 830.744 122.44 830.072C122.11 829.395 121.944 828.565 121.944 827.584C121.944 826.656 122.118 825.856 122.464 825.184C122.816 824.512 123.296 823.997 123.904 823.64C124.512 823.277 125.2 823.096 125.968 823.096C126.8 823.096 127.512 823.277 128.104 823.64C128.702 823.997 129.16 824.512 129.48 825.184C129.8 825.856 129.96 826.656 129.96 827.584C129.96 828.565 129.782 829.395 129.424 830.072C129.072 830.744 128.592 831.253 127.984 831.6C127.376 831.947 126.694 832.12 125.936 832.12ZM125.968 830.512C126.582 830.512 127.083 830.283 127.472 829.824C127.862 829.365 128.056 828.619 128.056 827.584C128.056 826.624 127.867 825.904 127.488 825.424C127.11 824.944 126.592 824.704 125.936 824.704C125.323 824.704 124.822 824.941 124.432 825.416C124.048 825.891 123.856 826.613 123.856 827.584C123.856 828.571 124.051 829.307 124.44 829.792C124.835 830.272 125.344 830.512 125.968 830.512ZM134.549 835.448V833.688H135.237C135.621 833.688 135.917 833.653 136.125 833.584C136.339 833.515 136.496 833.411 136.597 833.272C136.704 833.133 136.781 832.965 136.829 832.768C136.888 832.533 136.952 832.357 137.021 832.24C137.096 832.128 137.184 832.048 137.285 832H136.661L133.813 823.272H135.909L136.909 827.256L137.717 830.144H137.789L138.517 827.264L139.517 823.272H141.597L138.789 832C138.619 832.528 138.435 833.005 138.237 833.432C138.04 833.859 137.811 834.221 137.549 834.52C137.288 834.819 136.968 835.048 136.589 835.208C136.216 835.368 135.765 835.448 135.237 835.448H134.549ZM146.343 832.12C145.537 832.12 144.836 831.947 144.239 831.6C143.641 831.253 143.177 830.744 142.847 830.072C142.516 829.395 142.351 828.565 142.351 827.584C142.351 826.656 142.524 825.856 142.871 825.184C143.223 824.512 143.703 823.997 144.311 823.64C144.919 823.277 145.607 823.096 146.375 823.096C147.207 823.096 147.919 823.277 148.511 823.64C149.108 823.997 149.567 824.512 149.887 825.184C150.207 825.856 150.367 826.656 150.367 827.584C150.367 828.565 150.188 829.395 149.831 830.072C149.479 830.744 148.999 831.253 148.391 831.6C147.783 831.947 147.1 832.12 146.343 832.12ZM146.375 830.512C146.988 830.512 147.489 830.283 147.879 829.824C148.268 829.365 148.463 828.619 148.463 827.584C148.463 826.624 148.273 825.904 147.895 825.424C147.516 824.944 146.999 824.704 146.343 824.704C145.729 824.704 145.228 824.941 144.839 825.416C144.455 825.891 144.263 826.613 144.263 827.584C144.263 828.571 144.457 829.307 144.847 829.792C145.241 830.272 145.751 830.512 146.375 830.512ZM154.64 832.176C153.883 832.176 153.275 831.912 152.816 831.384C152.358 830.856 152.128 830.099 152.128 829.112V823.264H154.016V828.608C154.016 829.035 154.064 829.387 154.16 829.664C154.256 829.941 154.408 830.144 154.616 830.272C154.824 830.4 155.094 830.464 155.424 830.464C155.824 830.464 156.184 830.349 156.504 830.12C156.83 829.885 157.059 829.621 157.192 829.328V823.264H159.08V832H157.472L157.256 828.704L157.4 829.368C157.336 829.848 157.208 830.301 157.016 830.728C156.83 831.155 156.544 831.504 156.16 831.776C155.782 832.043 155.275 832.176 154.64 832.176ZM161.458 832V823.272H163.074L163.282 826.632L163.114 826.168C163.152 825.816 163.221 825.459 163.322 825.096C163.429 824.733 163.578 824.4 163.77 824.096C163.968 823.792 164.218 823.549 164.522 823.368C164.832 823.181 165.208 823.088 165.65 823.088C165.757 823.088 165.864 823.093 165.97 823.104C166.077 823.115 166.176 823.133 166.266 823.16V825.176C166.085 825.117 165.89 825.08 165.682 825.064C165.48 825.043 165.293 825.032 165.122 825.032C164.914 825.032 164.69 825.075 164.45 825.16C164.21 825.24 163.989 825.363 163.786 825.528C163.584 825.693 163.437 825.899 163.346 826.144V832H161.458ZM172.751 832.096C172.217 832.096 171.745 831.997 171.335 831.8C170.924 831.597 170.601 831.317 170.367 830.96C170.137 830.603 170.023 830.189 170.023 829.72C170.023 829.203 170.116 828.776 170.303 828.44C170.489 828.104 170.759 827.837 171.111 827.64C171.468 827.437 171.887 827.283 172.367 827.176C172.708 827.101 173.068 827.04 173.447 826.992C173.831 826.944 174.185 826.907 174.511 826.88C174.836 826.848 175.087 826.827 175.263 826.816V826.464C175.263 825.872 175.143 825.429 174.903 825.136C174.668 824.837 174.268 824.688 173.703 824.688C173.34 824.688 173.036 824.733 172.791 824.824C172.545 824.909 172.359 825.075 172.231 825.32C172.108 825.56 172.041 825.912 172.031 826.376H170.311C170.252 825.624 170.359 825.008 170.631 824.528C170.908 824.043 171.319 823.685 171.863 823.456C172.412 823.221 173.06 823.104 173.807 823.104C174.249 823.104 174.665 823.155 175.055 823.256C175.449 823.352 175.799 823.52 176.103 823.76C176.407 823.995 176.647 824.317 176.823 824.728C176.999 825.139 177.087 825.659 177.087 826.288V832H175.239L175.263 830.04C175.161 830.632 174.905 831.123 174.495 831.512C174.084 831.901 173.503 832.096 172.751 832.096ZM173.255 830.672C173.532 830.672 173.812 830.624 174.095 830.528C174.383 830.432 174.633 830.293 174.847 830.112C175.065 829.931 175.204 829.717 175.263 829.472V827.872C175.049 827.893 174.796 827.931 174.503 827.984C174.215 828.037 173.967 828.085 173.759 828.128C173.161 828.251 172.729 828.413 172.463 828.616C172.201 828.813 172.071 829.117 172.071 829.528C172.071 829.763 172.124 829.968 172.231 830.144C172.343 830.315 172.489 830.445 172.671 830.536C172.852 830.627 173.047 830.672 173.255 830.672ZM182.955 832.152C182.091 832.152 181.35 831.963 180.731 831.584C180.113 831.2 179.638 830.667 179.307 829.984C178.982 829.301 178.819 828.509 178.819 827.608C178.819 826.659 178.987 825.848 179.323 825.176C179.659 824.504 180.126 823.992 180.723 823.64C181.321 823.283 182.009 823.104 182.787 823.104C183.561 823.104 184.209 823.248 184.731 823.536C185.259 823.819 185.654 824.2 185.915 824.68C186.177 825.155 186.297 825.685 186.275 826.272H184.459C184.454 826.037 184.417 825.824 184.347 825.632C184.278 825.435 184.174 825.269 184.035 825.136C183.902 824.997 183.731 824.891 183.523 824.816C183.315 824.741 183.073 824.704 182.795 824.704C182.049 824.699 181.518 824.955 181.203 825.472C180.894 825.989 180.739 826.688 180.739 827.568C180.739 828.571 180.926 829.32 181.299 829.816C181.678 830.307 182.267 830.555 183.067 830.56C183.254 830.56 183.457 830.507 183.675 830.4C183.899 830.288 184.089 830.131 184.243 829.928C184.403 829.72 184.481 829.472 184.475 829.184H186.275C186.297 829.797 186.15 830.325 185.835 830.768C185.526 831.211 185.115 831.552 184.603 831.792C184.091 832.032 183.542 832.152 182.955 832.152ZM191.549 832.152C190.685 832.152 189.944 831.963 189.325 831.584C188.706 831.2 188.232 830.667 187.901 829.984C187.576 829.301 187.413 828.509 187.413 827.608C187.413 826.659 187.581 825.848 187.917 825.176C188.253 824.504 188.72 823.992 189.317 823.64C189.914 823.283 190.602 823.104 191.381 823.104C192.154 823.104 192.802 823.248 193.325 823.536C193.853 823.819 194.248 824.2 194.509 824.68C194.77 825.155 194.89 825.685 194.869 826.272H193.053C193.048 826.037 193.01 825.824 192.941 825.632C192.872 825.435 192.768 825.269 192.629 825.136C192.496 824.997 192.325 824.891 192.117 824.816C191.909 824.741 191.666 824.704 191.389 824.704C190.642 824.699 190.112 824.955 189.797 825.472C189.488 825.989 189.333 826.688 189.333 827.568C189.333 828.571 189.52 829.32 189.893 829.816C190.272 830.307 190.861 830.555 191.661 830.56C191.848 830.56 192.05 830.507 192.269 830.4C192.493 830.288 192.682 830.131 192.837 829.928C192.997 829.72 193.074 829.472 193.069 829.184H194.869C194.89 829.797 194.744 830.325 194.429 830.768C194.12 831.211 193.709 831.552 193.197 831.792C192.685 832.032 192.136 832.152 191.549 832.152ZM199.999 832.12C199.193 832.12 198.492 831.947 197.895 831.6C197.297 831.253 196.833 830.744 196.503 830.072C196.172 829.395 196.007 828.565 196.007 827.584C196.007 826.656 196.18 825.856 196.527 825.184C196.879 824.512 197.359 823.997 197.967 823.64C198.575 823.277 199.263 823.096 200.031 823.096C200.863 823.096 201.575 823.277 202.167 823.64C202.764 823.997 203.223 824.512 203.543 825.184C203.863 825.856 204.023 826.656 204.023 827.584C204.023 828.565 203.844 829.395 203.487 830.072C203.135 830.744 202.655 831.253 202.047 831.6C201.439 831.947 200.756 832.12 199.999 832.12ZM200.031 830.512C200.644 830.512 201.145 830.283 201.535 829.824C201.924 829.365 202.119 828.619 202.119 827.584C202.119 826.624 201.929 825.904 201.551 825.424C201.172 824.944 200.655 824.704 199.999 824.704C199.385 824.704 198.884 824.941 198.495 825.416C198.111 825.891 197.919 826.613 197.919 827.584C197.919 828.571 198.113 829.307 198.503 829.792C198.897 830.272 199.407 830.512 200.031 830.512ZM208.296 832.176C207.539 832.176 206.931 831.912 206.472 831.384C206.014 830.856 205.784 830.099 205.784 829.112V823.264H207.672V828.608C207.672 829.035 207.72 829.387 207.816 829.664C207.912 829.941 208.064 830.144 208.272 830.272C208.48 830.4 208.75 830.464 209.08 830.464C209.48 830.464 209.84 830.349 210.16 830.12C210.486 829.885 210.715 829.621 210.848 829.328V823.264H212.736V832H211.128L210.912 828.704L211.056 829.368C210.992 829.848 210.864 830.301 210.672 830.728C210.486 831.155 210.2 831.504 209.816 831.776C209.438 832.043 208.931 832.176 208.296 832.176ZM215.114 832V823.272H216.73L216.938 826.56L216.802 825.896C216.866 825.416 216.992 824.963 217.178 824.536C217.37 824.104 217.656 823.755 218.034 823.488C218.413 823.221 218.92 823.088 219.554 823.088C220.381 823.088 221.021 823.347 221.474 823.864C221.928 824.376 222.154 825.16 222.154 826.216V832H220.266V826.872C220.266 826.371 220.216 825.968 220.114 825.664C220.018 825.36 219.861 825.141 219.642 825.008C219.424 824.869 219.133 824.8 218.77 824.8C218.376 824.8 218.016 824.917 217.69 825.152C217.37 825.381 217.141 825.643 217.002 825.936V832H215.114ZM226.802 832.128C226.108 832.128 225.567 831.952 225.178 831.6C224.794 831.243 224.602 830.733 224.602 830.072V825.656C224.602 825.48 224.639 825.323 224.714 825.184C224.788 825.04 224.898 824.949 225.042 824.912L224.602 823.616V823.384L225.026 820.768H226.466V829.6C226.466 829.909 226.532 830.125 226.666 830.248C226.804 830.371 227.06 830.432 227.434 830.432C227.674 830.432 227.895 830.432 228.098 830.432C228.3 830.427 228.484 830.421 228.65 830.416V832.024C228.372 832.072 228.068 832.101 227.738 832.112C227.407 832.123 227.095 832.128 226.802 832.128ZM223.458 824.912V823.272H228.666V824.912H223.458Z" fill="white"/>
<rect x="396" y="765" width="35" height="33" rx="16.5" fill="white"/>
<path d="M408.559 788C408.585 786.984 408.803 786.057 409.213 785.217C409.61 784.273 410.548 783.273 412.025 782.219C413.308 781.301 414.138 780.643 414.516 780.246C415.095 779.628 415.385 778.951 415.385 778.215C415.385 777.616 415.219 777.118 414.887 776.721C414.555 776.324 414.079 776.125 413.461 776.125C412.615 776.125 412.038 776.441 411.732 777.072C411.557 777.437 411.452 778.016 411.42 778.811H408.715C408.76 777.606 408.979 776.633 409.369 775.891C410.111 774.478 411.43 773.771 413.324 773.771C414.822 773.771 416.013 774.188 416.898 775.021C417.784 775.848 418.227 776.945 418.227 778.312C418.227 779.361 417.914 780.292 417.289 781.105C416.879 781.646 416.205 782.248 415.268 782.912L414.154 783.703C413.458 784.198 412.979 784.556 412.719 784.777C412.465 784.999 412.25 785.256 412.074 785.549H418.256V788H408.559Z" fill="black"/>
<path d="M336.046 832V820.368H337.95V831.216L337.03 830.208H342.798V832H336.046ZM347.577 832.12C346.772 832.12 346.07 831.947 345.473 831.6C344.876 831.253 344.412 830.744 344.081 830.072C343.75 829.395 343.585 828.565 343.585 827.584C343.585 826.656 343.758 825.856 344.105 825.184C344.457 824.512 344.937 823.997 345.545 823.64C346.153 823.277 346.841 823.096 347.609 823.096C348.441 823.096 349.153 823.277 349.745 823.64C350.342 823.997 350.801 824.512 351.121 825.184C351.441 825.856 351.601 826.656 351.601 827.584C351.601 828.565 351.422 829.395 351.065 830.072C350.713 830.744 350.233 831.253 349.625 831.6C349.017 831.947 348.334 832.12 347.577 832.12ZM347.609 830.512C348.222 830.512 348.724 830.283 349.113 829.824C349.502 829.365 349.697 828.619 349.697 827.584C349.697 826.624 349.508 825.904 349.129 825.424C348.75 824.944 348.233 824.704 347.577 824.704C346.964 824.704 346.462 824.941 346.073 825.416C345.689 825.891 345.497 826.613 345.497 827.584C345.497 828.571 345.692 829.307 346.081 829.792C346.476 830.272 346.985 830.512 347.609 830.512ZM356.993 835.568C356.284 835.568 355.644 835.451 355.073 835.216C354.508 834.987 354.07 834.635 353.761 834.16C353.452 833.685 353.332 833.091 353.401 832.376H355.225C355.22 832.68 355.257 832.952 355.337 833.192C355.417 833.437 355.585 833.632 355.841 833.776C356.097 833.92 356.486 833.992 357.009 833.992C357.462 833.992 357.809 833.928 358.049 833.8C358.294 833.672 358.46 833.477 358.545 833.216C358.63 832.955 358.673 832.616 358.673 832.2V829.832C358.625 830.083 358.521 830.347 358.361 830.624C358.201 830.901 357.953 831.136 357.617 831.328C357.281 831.515 356.828 831.608 356.257 831.608C355.74 831.608 355.278 831.493 354.873 831.264C354.468 831.035 354.124 830.725 353.841 830.336C353.558 829.947 353.342 829.509 353.193 829.024C353.049 828.533 352.977 828.027 352.977 827.504C352.977 826.533 353.137 825.723 353.457 825.072C353.782 824.421 354.201 823.931 354.713 823.6C355.225 823.269 355.766 823.104 356.337 823.104C356.844 823.104 357.252 823.173 357.561 823.312C357.876 823.451 358.121 823.619 358.297 823.816C358.473 824.013 358.601 824.208 358.681 824.4L358.689 823.272H360.537V832.184C360.537 832.973 360.382 833.616 360.073 834.112C359.769 834.608 359.35 834.971 358.817 835.2C358.284 835.435 357.676 835.557 356.993 835.568ZM356.905 830.096C357.305 830.096 357.628 830.043 357.873 829.936C358.118 829.824 358.305 829.693 358.433 829.544C358.561 829.389 358.641 829.256 358.673 829.144V825.488C358.62 825.36 358.521 825.235 358.377 825.112C358.233 824.989 358.044 824.888 357.809 824.808C357.574 824.728 357.286 824.688 356.945 824.688C356.353 824.688 355.868 824.907 355.489 825.344C355.11 825.781 354.921 826.467 354.921 827.4C354.921 828.248 355.108 828.909 355.481 829.384C355.86 829.859 356.334 830.096 356.905 830.096ZM362.896 832V823.272H364.808L364.784 832H362.896ZM363.864 821.976C363.517 821.976 363.224 821.856 362.984 821.616C362.744 821.371 362.624 821.059 362.624 820.68C362.624 820.307 362.744 820.003 362.984 819.768C363.224 819.533 363.517 819.416 363.864 819.416C364.2 819.416 364.488 819.533 364.728 819.768C364.973 820.003 365.096 820.307 365.096 820.68C365.096 821.059 364.973 821.371 364.728 821.616C364.488 821.856 364.2 821.976 363.864 821.976ZM367.177 832V823.272H368.793L369.001 826.56L368.865 825.896C368.929 825.416 369.054 824.963 369.241 824.536C369.433 824.104 369.718 823.755 370.097 823.488C370.476 823.221 370.982 823.088 371.617 823.088C372.444 823.088 373.084 823.347 373.537 823.864C373.99 824.376 374.217 825.16 374.217 826.216V832H372.329V826.872C372.329 826.371 372.278 825.968 372.177 825.664C372.081 825.36 371.924 825.141 371.705 825.008C371.486 824.869 371.196 824.8 370.833 824.8C370.438 824.8 370.078 824.917 369.753 825.152C369.433 825.381 369.204 825.643 369.065 825.936V832H367.177ZM382.083 832.128C381.39 832.128 380.848 831.952 380.459 831.6C380.075 831.243 379.883 830.733 379.883 830.072V825.656C379.883 825.48 379.92 825.323 379.995 825.184C380.07 825.04 380.179 824.949 380.323 824.912L379.883 823.616V823.384L380.307 820.768H381.747V829.6C381.747 829.909 381.814 830.125 381.947 830.248C382.086 830.371 382.342 830.432 382.715 830.432C382.955 830.432 383.176 830.432 383.379 830.432C383.582 830.427 383.766 830.421 383.931 830.416V832.024C383.654 832.072 383.35 832.101 383.019 832.112C382.688 832.123 382.376 832.128 382.083 832.128ZM378.739 824.912V823.272H383.947V824.912H378.739ZM388.936 832.12C388.131 832.12 387.43 831.947 386.832 831.6C386.235 831.253 385.771 830.744 385.44 830.072C385.11 829.395 384.944 828.565 384.944 827.584C384.944 826.656 385.118 825.856 385.464 825.184C385.816 824.512 386.296 823.997 386.904 823.64C387.512 823.277 388.2 823.096 388.968 823.096C389.8 823.096 390.512 823.277 391.104 823.64C391.702 823.997 392.16 824.512 392.48 825.184C392.8 825.856 392.96 826.656 392.96 827.584C392.96 828.565 392.782 829.395 392.424 830.072C392.072 830.744 391.592 831.253 390.984 831.6C390.376 831.947 389.694 832.12 388.936 832.12ZM388.968 830.512C389.582 830.512 390.083 830.283 390.472 829.824C390.862 829.365 391.056 828.619 391.056 827.584C391.056 826.624 390.867 825.904 390.488 825.424C390.11 824.944 389.592 824.704 388.936 824.704C388.323 824.704 387.822 824.941 387.432 825.416C387.048 825.891 386.856 826.613 386.856 827.584C386.856 828.571 387.051 829.307 387.44 829.792C387.835 830.272 388.344 830.512 388.968 830.512ZM397.549 835.448V833.688H398.237C398.621 833.688 398.917 833.653 399.125 833.584C399.339 833.515 399.496 833.411 399.597 833.272C399.704 833.133 399.781 832.965 399.829 832.768C399.888 832.533 399.952 832.357 400.021 832.24C400.096 832.128 400.184 832.048 400.285 832H399.661L396.813 823.272H398.909L399.909 827.256L400.717 830.144H400.789L401.517 827.264L402.517 823.272H404.597L401.789 832C401.619 832.528 401.435 833.005 401.237 833.432C401.04 833.859 400.811 834.221 400.549 834.52C400.288 834.819 399.968 835.048 399.589 835.208C399.216 835.368 398.765 835.448 398.237 835.448H397.549ZM409.343 832.12C408.537 832.12 407.836 831.947 407.239 831.6C406.641 831.253 406.177 830.744 405.847 830.072C405.516 829.395 405.351 828.565 405.351 827.584C405.351 826.656 405.524 825.856 405.871 825.184C406.223 824.512 406.703 823.997 407.311 823.64C407.919 823.277 408.607 823.096 409.375 823.096C410.207 823.096 410.919 823.277 411.511 823.64C412.108 823.997 412.567 824.512 412.887 825.184C413.207 825.856 413.367 826.656 413.367 827.584C413.367 828.565 413.188 829.395 412.831 830.072C412.479 830.744 411.999 831.253 411.391 831.6C410.783 831.947 410.1 832.12 409.343 832.12ZM409.375 830.512C409.988 830.512 410.489 830.283 410.879 829.824C411.268 829.365 411.463 828.619 411.463 827.584C411.463 826.624 411.273 825.904 410.895 825.424C410.516 824.944 409.999 824.704 409.343 824.704C408.729 824.704 408.228 824.941 407.839 825.416C407.455 825.891 407.263 826.613 407.263 827.584C407.263 828.571 407.457 829.307 407.847 829.792C408.241 830.272 408.751 830.512 409.375 830.512ZM417.64 832.176C416.883 832.176 416.275 831.912 415.816 831.384C415.358 830.856 415.128 830.099 415.128 829.112V823.264H417.016V828.608C417.016 829.035 417.064 829.387 417.16 829.664C417.256 829.941 417.408 830.144 417.616 830.272C417.824 830.4 418.094 830.464 418.424 830.464C418.824 830.464 419.184 830.349 419.504 830.12C419.83 829.885 420.059 829.621 420.192 829.328V823.264H422.08V832H420.472L420.256 828.704L420.4 829.368C420.336 829.848 420.208 830.301 420.016 830.728C419.83 831.155 419.544 831.504 419.16 831.776C418.782 832.043 418.275 832.176 417.64 832.176ZM424.458 832V823.272H426.074L426.282 826.632L426.114 826.168C426.152 825.816 426.221 825.459 426.322 825.096C426.429 824.733 426.578 824.4 426.77 824.096C426.968 823.792 427.218 823.549 427.522 823.368C427.832 823.181 428.208 823.088 428.65 823.088C428.757 823.088 428.864 823.093 428.97 823.104C429.077 823.115 429.176 823.133 429.266 823.16V825.176C429.085 825.117 428.89 825.08 428.682 825.064C428.48 825.043 428.293 825.032 428.122 825.032C427.914 825.032 427.69 825.075 427.45 825.16C427.21 825.24 426.989 825.363 426.786 825.528C426.584 825.693 426.437 825.899 426.346 826.144V832H424.458ZM435.751 832.096C435.217 832.096 434.745 831.997 434.335 831.8C433.924 831.597 433.601 831.317 433.367 830.96C433.137 830.603 433.023 830.189 433.023 829.72C433.023 829.203 433.116 828.776 433.303 828.44C433.489 828.104 433.759 827.837 434.111 827.64C434.468 827.437 434.887 827.283 435.367 827.176C435.708 827.101 436.068 827.04 436.447 826.992C436.831 826.944 437.185 826.907 437.511 826.88C437.836 826.848 438.087 826.827 438.263 826.816V826.464C438.263 825.872 438.143 825.429 437.903 825.136C437.668 824.837 437.268 824.688 436.703 824.688C436.34 824.688 436.036 824.733 435.791 824.824C435.545 824.909 435.359 825.075 435.231 825.32C435.108 825.56 435.041 825.912 435.031 826.376H433.311C433.252 825.624 433.359 825.008 433.631 824.528C433.908 824.043 434.319 823.685 434.863 823.456C435.412 823.221 436.06 823.104 436.807 823.104C437.249 823.104 437.665 823.155 438.055 823.256C438.449 823.352 438.799 823.52 439.103 823.76C439.407 823.995 439.647 824.317 439.823 824.728C439.999 825.139 440.087 825.659 440.087 826.288V832H438.239L438.263 830.04C438.161 830.632 437.905 831.123 437.495 831.512C437.084 831.901 436.503 832.096 435.751 832.096ZM436.255 830.672C436.532 830.672 436.812 830.624 437.095 830.528C437.383 830.432 437.633 830.293 437.847 830.112C438.065 829.931 438.204 829.717 438.263 829.472V827.872C438.049 827.893 437.796 827.931 437.503 827.984C437.215 828.037 436.967 828.085 436.759 828.128C436.161 828.251 435.729 828.413 435.463 828.616C435.201 828.813 435.071 829.117 435.071 829.528C435.071 829.763 435.124 829.968 435.231 830.144C435.343 830.315 435.489 830.445 435.671 830.536C435.852 830.627 436.047 830.672 436.255 830.672ZM445.955 832.152C445.091 832.152 444.35 831.963 443.731 831.584C443.113 831.2 442.638 830.667 442.307 829.984C441.982 829.301 441.819 828.509 441.819 827.608C441.819 826.659 441.987 825.848 442.323 825.176C442.659 824.504 443.126 823.992 443.723 823.64C444.321 823.283 445.009 823.104 445.787 823.104C446.561 823.104 447.209 823.248 447.731 823.536C448.259 823.819 448.654 824.2 448.915 824.68C449.177 825.155 449.297 825.685 449.275 826.272H447.459C447.454 826.037 447.417 825.824 447.347 825.632C447.278 825.435 447.174 825.269 447.035 825.136C446.902 824.997 446.731 824.891 446.523 824.816C446.315 824.741 446.073 824.704 445.795 824.704C445.049 824.699 444.518 824.955 444.203 825.472C443.894 825.989 443.739 826.688 443.739 827.568C443.739 828.571 443.926 829.32 444.299 829.816C444.678 830.307 445.267 830.555 446.067 830.56C446.254 830.56 446.457 830.507 446.675 830.4C446.899 830.288 447.089 830.131 447.243 829.928C447.403 829.72 447.481 829.472 447.475 829.184H449.275C449.297 829.797 449.15 830.325 448.835 830.768C448.526 831.211 448.115 831.552 447.603 831.792C447.091 832.032 446.542 832.152 445.955 832.152ZM454.549 832.152C453.685 832.152 452.944 831.963 452.325 831.584C451.706 831.2 451.232 830.667 450.901 829.984C450.576 829.301 450.413 828.509 450.413 827.608C450.413 826.659 450.581 825.848 450.917 825.176C451.253 824.504 451.72 823.992 452.317 823.64C452.914 823.283 453.602 823.104 454.381 823.104C455.154 823.104 455.802 823.248 456.325 823.536C456.853 823.819 457.248 824.2 457.509 824.68C457.77 825.155 457.89 825.685 457.869 826.272H456.053C456.048 826.037 456.01 825.824 455.941 825.632C455.872 825.435 455.768 825.269 455.629 825.136C455.496 824.997 455.325 824.891 455.117 824.816C454.909 824.741 454.666 824.704 454.389 824.704C453.642 824.699 453.112 824.955 452.797 825.472C452.488 825.989 452.333 826.688 452.333 827.568C452.333 828.571 452.52 829.32 452.893 829.816C453.272 830.307 453.861 830.555 454.661 830.56C454.848 830.56 455.05 830.507 455.269 830.4C455.493 830.288 455.682 830.131 455.837 829.928C455.997 829.72 456.074 829.472 456.069 829.184H457.869C457.89 829.797 457.744 830.325 457.429 830.768C457.12 831.211 456.709 831.552 456.197 831.792C455.685 832.032 455.136 832.152 454.549 832.152ZM462.999 832.12C462.193 832.12 461.492 831.947 460.895 831.6C460.297 831.253 459.833 830.744 459.503 830.072C459.172 829.395 459.007 828.565 459.007 827.584C459.007 826.656 459.18 825.856 459.527 825.184C459.879 824.512 460.359 823.997 460.967 823.64C461.575 823.277 462.263 823.096 463.031 823.096C463.863 823.096 464.575 823.277 465.167 823.64C465.764 823.997 466.223 824.512 466.543 825.184C466.863 825.856 467.023 826.656 467.023 827.584C467.023 828.565 466.844 829.395 466.487 830.072C466.135 830.744 465.655 831.253 465.047 831.6C464.439 831.947 463.756 832.12 462.999 832.12ZM463.031 830.512C463.644 830.512 464.145 830.283 464.535 829.824C464.924 829.365 465.119 828.619 465.119 827.584C465.119 826.624 464.929 825.904 464.551 825.424C464.172 824.944 463.655 824.704 462.999 824.704C462.385 824.704 461.884 824.941 461.495 825.416C461.111 825.891 460.919 826.613 460.919 827.584C460.919 828.571 461.113 829.307 461.503 829.792C461.897 830.272 462.407 830.512 463.031 830.512ZM471.296 832.176C470.539 832.176 469.931 831.912 469.472 831.384C469.014 830.856 468.784 830.099 468.784 829.112V823.264H470.672V828.608C470.672 829.035 470.72 829.387 470.816 829.664C470.912 829.941 471.064 830.144 471.272 830.272C471.48 830.4 471.75 830.464 472.08 830.464C472.48 830.464 472.84 830.349 473.16 830.12C473.486 829.885 473.715 829.621 473.848 829.328V823.264H475.736V832H474.128L473.912 828.704L474.056 829.368C473.992 829.848 473.864 830.301 473.672 830.728C473.486 831.155 473.2 831.504 472.816 831.776C472.438 832.043 471.931 832.176 471.296 832.176ZM478.114 832V823.272H479.73L479.938 826.56L479.802 825.896C479.866 825.416 479.992 824.963 480.178 824.536C480.37 824.104 480.656 823.755 481.034 823.488C481.413 823.221 481.92 823.088 482.554 823.088C483.381 823.088 484.021 823.347 484.474 823.864C484.928 824.376 485.154 825.16 485.154 826.216V832H483.266V826.872C483.266 826.371 483.216 825.968 483.114 825.664C483.018 825.36 482.861 825.141 482.642 825.008C482.424 824.869 482.133 824.8 481.77 824.8C481.376 824.8 481.016 824.917 480.69 825.152C480.37 825.381 480.141 825.643 480.002 825.936V832H478.114ZM489.802 832.128C489.108 832.128 488.567 831.952 488.178 831.6C487.794 831.243 487.602 830.733 487.602 830.072V825.656C487.602 825.48 487.639 825.323 487.714 825.184C487.788 825.04 487.898 824.949 488.042 824.912L487.602 823.616V823.384L488.026 820.768H489.466V829.6C489.466 829.909 489.532 830.125 489.666 830.248C489.804 830.371 490.06 830.432 490.434 830.432C490.674 830.432 490.895 830.432 491.098 830.432C491.3 830.427 491.484 830.421 491.65 830.416V832.024C491.372 832.072 491.068 832.101 490.738 832.112C490.407 832.123 490.095 832.128 489.802 832.128ZM486.458 824.912V823.272H491.666V824.912H486.458Z" fill="white"/>
<rect x="659" y="765" width="35" height="33" rx="16.5" fill="white"/>
<path d="M674.195 783.654C674.195 784.221 674.286 784.689 674.469 785.061C674.807 785.744 675.423 786.086 676.314 786.086C676.861 786.086 677.337 785.9 677.74 785.529C678.15 785.152 678.355 784.611 678.355 783.908C678.355 782.977 677.978 782.355 677.223 782.043C676.793 781.867 676.116 781.779 675.191 781.779V779.787C676.096 779.774 676.728 779.686 677.086 779.523C677.704 779.25 678.014 778.697 678.014 777.863C678.014 777.323 677.854 776.883 677.535 776.545C677.223 776.206 676.78 776.037 676.207 776.037C675.549 776.037 675.064 776.245 674.752 776.662C674.446 777.079 674.299 777.635 674.312 778.332H671.715C671.741 777.629 671.861 776.962 672.076 776.33C672.304 775.777 672.662 775.266 673.15 774.797C673.515 774.465 673.948 774.211 674.449 774.035C674.951 773.859 675.566 773.771 676.295 773.771C677.649 773.771 678.74 774.123 679.566 774.826C680.4 775.523 680.816 776.46 680.816 777.639C680.816 778.472 680.569 779.175 680.074 779.748C679.762 780.106 679.436 780.35 679.098 780.48C679.352 780.48 679.716 780.699 680.191 781.135C680.901 781.792 681.256 782.691 681.256 783.83C681.256 785.028 680.839 786.083 680.006 786.994C679.179 787.899 677.952 788.352 676.324 788.352C674.319 788.352 672.926 787.697 672.145 786.389C671.734 785.692 671.507 784.781 671.461 783.654H674.195Z" fill="black"/>
<path d="M599.046 832V820.368H600.95V831.216L600.03 830.208H605.798V832H599.046ZM610.577 832.12C609.772 832.12 609.07 831.947 608.473 831.6C607.876 831.253 607.412 830.744 607.081 830.072C606.75 829.395 606.585 828.565 606.585 827.584C606.585 826.656 606.758 825.856 607.105 825.184C607.457 824.512 607.937 823.997 608.545 823.64C609.153 823.277 609.841 823.096 610.609 823.096C611.441 823.096 612.153 823.277 612.745 823.64C613.342 823.997 613.801 824.512 614.121 825.184C614.441 825.856 614.601 826.656 614.601 827.584C614.601 828.565 614.422 829.395 614.065 830.072C613.713 830.744 613.233 831.253 612.625 831.6C612.017 831.947 611.334 832.12 610.577 832.12ZM610.609 830.512C611.222 830.512 611.724 830.283 612.113 829.824C612.502 829.365 612.697 828.619 612.697 827.584C612.697 826.624 612.508 825.904 612.129 825.424C611.75 824.944 611.233 824.704 610.577 824.704C609.964 824.704 609.462 824.941 609.073 825.416C608.689 825.891 608.497 826.613 608.497 827.584C608.497 828.571 608.692 829.307 609.081 829.792C609.476 830.272 609.985 830.512 610.609 830.512ZM619.993 835.568C619.284 835.568 618.644 835.451 618.073 835.216C617.508 834.987 617.07 834.635 616.761 834.16C616.452 833.685 616.332 833.091 616.401 832.376H618.225C618.22 832.68 618.257 832.952 618.337 833.192C618.417 833.437 618.585 833.632 618.841 833.776C619.097 833.92 619.486 833.992 620.009 833.992C620.462 833.992 620.809 833.928 621.049 833.8C621.294 833.672 621.46 833.477 621.545 833.216C621.63 832.955 621.673 832.616 621.673 832.2V829.832C621.625 830.083 621.521 830.347 621.361 830.624C621.201 830.901 620.953 831.136 620.617 831.328C620.281 831.515 619.828 831.608 619.257 831.608C618.74 831.608 618.278 831.493 617.873 831.264C617.468 831.035 617.124 830.725 616.841 830.336C616.558 829.947 616.342 829.509 616.193 829.024C616.049 828.533 615.977 828.027 615.977 827.504C615.977 826.533 616.137 825.723 616.457 825.072C616.782 824.421 617.201 823.931 617.713 823.6C618.225 823.269 618.766 823.104 619.337 823.104C619.844 823.104 620.252 823.173 620.561 823.312C620.876 823.451 621.121 823.619 621.297 823.816C621.473 824.013 621.601 824.208 621.681 824.4L621.689 823.272H623.537V832.184C623.537 832.973 623.382 833.616 623.073 834.112C622.769 834.608 622.35 834.971 621.817 835.2C621.284 835.435 620.676 835.557 619.993 835.568ZM619.905 830.096C620.305 830.096 620.628 830.043 620.873 829.936C621.118 829.824 621.305 829.693 621.433 829.544C621.561 829.389 621.641 829.256 621.673 829.144V825.488C621.62 825.36 621.521 825.235 621.377 825.112C621.233 824.989 621.044 824.888 620.809 824.808C620.574 824.728 620.286 824.688 619.945 824.688C619.353 824.688 618.868 824.907 618.489 825.344C618.11 825.781 617.921 826.467 617.921 827.4C617.921 828.248 618.108 828.909 618.481 829.384C618.86 829.859 619.334 830.096 619.905 830.096ZM625.896 832V823.272H627.808L627.784 832H625.896ZM626.864 821.976C626.517 821.976 626.224 821.856 625.984 821.616C625.744 821.371 625.624 821.059 625.624 820.68C625.624 820.307 625.744 820.003 625.984 819.768C626.224 819.533 626.517 819.416 626.864 819.416C627.2 819.416 627.488 819.533 627.728 819.768C627.973 820.003 628.096 820.307 628.096 820.68C628.096 821.059 627.973 821.371 627.728 821.616C627.488 821.856 627.2 821.976 626.864 821.976ZM630.177 832V823.272H631.793L632.001 826.56L631.865 825.896C631.929 825.416 632.054 824.963 632.241 824.536C632.433 824.104 632.718 823.755 633.097 823.488C633.476 823.221 633.982 823.088 634.617 823.088C635.444 823.088 636.084 823.347 636.537 823.864C636.99 824.376 637.217 825.16 637.217 826.216V832H635.329V826.872C635.329 826.371 635.278 825.968 635.177 825.664C635.081 825.36 634.924 825.141 634.705 825.008C634.486 824.869 634.196 824.8 633.833 824.8C633.438 824.8 633.078 824.917 632.753 825.152C632.433 825.381 632.204 825.643 632.065 825.936V832H630.177ZM645.083 832.128C644.39 832.128 643.848 831.952 643.459 831.6C643.075 831.243 642.883 830.733 642.883 830.072V825.656C642.883 825.48 642.92 825.323 642.995 825.184C643.07 825.04 643.179 824.949 643.323 824.912L642.883 823.616V823.384L643.307 820.768H644.747V829.6C644.747 829.909 644.814 830.125 644.947 830.248C645.086 830.371 645.342 830.432 645.715 830.432C645.955 830.432 646.176 830.432 646.379 830.432C646.582 830.427 646.766 830.421 646.931 830.416V832.024C646.654 832.072 646.35 832.101 646.019 832.112C645.688 832.123 645.376 832.128 645.083 832.128ZM641.739 824.912V823.272H646.947V824.912H641.739ZM651.936 832.12C651.131 832.12 650.43 831.947 649.832 831.6C649.235 831.253 648.771 830.744 648.44 830.072C648.11 829.395 647.944 828.565 647.944 827.584C647.944 826.656 648.118 825.856 648.464 825.184C648.816 824.512 649.296 823.997 649.904 823.64C650.512 823.277 651.2 823.096 651.968 823.096C652.8 823.096 653.512 823.277 654.104 823.64C654.702 823.997 655.16 824.512 655.48 825.184C655.8 825.856 655.96 826.656 655.96 827.584C655.96 828.565 655.782 829.395 655.424 830.072C655.072 830.744 654.592 831.253 653.984 831.6C653.376 831.947 652.694 832.12 651.936 832.12ZM651.968 830.512C652.582 830.512 653.083 830.283 653.472 829.824C653.862 829.365 654.056 828.619 654.056 827.584C654.056 826.624 653.867 825.904 653.488 825.424C653.11 824.944 652.592 824.704 651.936 824.704C651.323 824.704 650.822 824.941 650.432 825.416C650.048 825.891 649.856 826.613 649.856 827.584C649.856 828.571 650.051 829.307 650.44 829.792C650.835 830.272 651.344 830.512 651.968 830.512ZM660.549 835.448V833.688H661.237C661.621 833.688 661.917 833.653 662.125 833.584C662.339 833.515 662.496 833.411 662.597 833.272C662.704 833.133 662.781 832.965 662.829 832.768C662.888 832.533 662.952 832.357 663.021 832.24C663.096 832.128 663.184 832.048 663.285 832H662.661L659.813 823.272H661.909L662.909 827.256L663.717 830.144H663.789L664.517 827.264L665.517 823.272H667.597L664.789 832C664.619 832.528 664.435 833.005 664.237 833.432C664.04 833.859 663.811 834.221 663.549 834.52C663.288 834.819 662.968 835.048 662.589 835.208C662.216 835.368 661.765 835.448 661.237 835.448H660.549ZM672.343 832.12C671.537 832.12 670.836 831.947 670.239 831.6C669.641 831.253 669.177 830.744 668.847 830.072C668.516 829.395 668.351 828.565 668.351 827.584C668.351 826.656 668.524 825.856 668.871 825.184C669.223 824.512 669.703 823.997 670.311 823.64C670.919 823.277 671.607 823.096 672.375 823.096C673.207 823.096 673.919 823.277 674.511 823.64C675.108 823.997 675.567 824.512 675.887 825.184C676.207 825.856 676.367 826.656 676.367 827.584C676.367 828.565 676.188 829.395 675.831 830.072C675.479 830.744 674.999 831.253 674.391 831.6C673.783 831.947 673.1 832.12 672.343 832.12ZM672.375 830.512C672.988 830.512 673.489 830.283 673.879 829.824C674.268 829.365 674.463 828.619 674.463 827.584C674.463 826.624 674.273 825.904 673.895 825.424C673.516 824.944 672.999 824.704 672.343 824.704C671.729 824.704 671.228 824.941 670.839 825.416C670.455 825.891 670.263 826.613 670.263 827.584C670.263 828.571 670.457 829.307 670.847 829.792C671.241 830.272 671.751 830.512 672.375 830.512ZM680.64 832.176C679.883 832.176 679.275 831.912 678.816 831.384C678.358 830.856 678.128 830.099 678.128 829.112V823.264H680.016V828.608C680.016 829.035 680.064 829.387 680.16 829.664C680.256 829.941 680.408 830.144 680.616 830.272C680.824 830.4 681.094 830.464 681.424 830.464C681.824 830.464 682.184 830.349 682.504 830.12C682.83 829.885 683.059 829.621 683.192 829.328V823.264H685.08V832H683.472L683.256 828.704L683.4 829.368C683.336 829.848 683.208 830.301 683.016 830.728C682.83 831.155 682.544 831.504 682.16 831.776C681.782 832.043 681.275 832.176 680.64 832.176ZM687.458 832V823.272H689.074L689.282 826.632L689.114 826.168C689.152 825.816 689.221 825.459 689.322 825.096C689.429 824.733 689.578 824.4 689.77 824.096C689.968 823.792 690.218 823.549 690.522 823.368C690.832 823.181 691.208 823.088 691.65 823.088C691.757 823.088 691.864 823.093 691.97 823.104C692.077 823.115 692.176 823.133 692.266 823.16V825.176C692.085 825.117 691.89 825.08 691.682 825.064C691.48 825.043 691.293 825.032 691.122 825.032C690.914 825.032 690.69 825.075 690.45 825.16C690.21 825.24 689.989 825.363 689.786 825.528C689.584 825.693 689.437 825.899 689.346 826.144V832H687.458ZM698.751 832.096C698.217 832.096 697.745 831.997 697.335 831.8C696.924 831.597 696.601 831.317 696.367 830.96C696.137 830.603 696.023 830.189 696.023 829.72C696.023 829.203 696.116 828.776 696.303 828.44C696.489 828.104 696.759 827.837 697.111 827.64C697.468 827.437 697.887 827.283 698.367 827.176C698.708 827.101 699.068 827.04 699.447 826.992C699.831 826.944 700.185 826.907 700.511 826.88C700.836 826.848 701.087 826.827 701.263 826.816V826.464C701.263 825.872 701.143 825.429 700.903 825.136C700.668 824.837 700.268 824.688 699.703 824.688C699.34 824.688 699.036 824.733 698.791 824.824C698.545 824.909 698.359 825.075 698.231 825.32C698.108 825.56 698.041 825.912 698.031 826.376H696.311C696.252 825.624 696.359 825.008 696.631 824.528C696.908 824.043 697.319 823.685 697.863 823.456C698.412 823.221 699.06 823.104 699.807 823.104C700.249 823.104 700.665 823.155 701.055 823.256C701.449 823.352 701.799 823.52 702.103 823.76C702.407 823.995 702.647 824.317 702.823 824.728C702.999 825.139 703.087 825.659 703.087 826.288V832H701.239L701.263 830.04C701.161 830.632 700.905 831.123 700.495 831.512C700.084 831.901 699.503 832.096 698.751 832.096ZM699.255 830.672C699.532 830.672 699.812 830.624 700.095 830.528C700.383 830.432 700.633 830.293 700.847 830.112C701.065 829.931 701.204 829.717 701.263 829.472V827.872C701.049 827.893 700.796 827.931 700.503 827.984C700.215 828.037 699.967 828.085 699.759 828.128C699.161 828.251 698.729 828.413 698.463 828.616C698.201 828.813 698.071 829.117 698.071 829.528C698.071 829.763 698.124 829.968 698.231 830.144C698.343 830.315 698.489 830.445 698.671 830.536C698.852 830.627 699.047 830.672 699.255 830.672ZM708.955 832.152C708.091 832.152 707.35 831.963 706.731 831.584C706.113 831.2 705.638 830.667 705.307 829.984C704.982 829.301 704.819 828.509 704.819 827.608C704.819 826.659 704.987 825.848 705.323 825.176C705.659 824.504 706.126 823.992 706.723 823.64C707.321 823.283 708.009 823.104 708.787 823.104C709.561 823.104 710.209 823.248 710.731 823.536C711.259 823.819 711.654 824.2 711.915 824.68C712.177 825.155 712.297 825.685 712.275 826.272H710.459C710.454 826.037 710.417 825.824 710.347 825.632C710.278 825.435 710.174 825.269 710.035 825.136C709.902 824.997 709.731 824.891 709.523 824.816C709.315 824.741 709.073 824.704 708.795 824.704C708.049 824.699 707.518 824.955 707.203 825.472C706.894 825.989 706.739 826.688 706.739 827.568C706.739 828.571 706.926 829.32 707.299 829.816C707.678 830.307 708.267 830.555 709.067 830.56C709.254 830.56 709.457 830.507 709.675 830.4C709.899 830.288 710.089 830.131 710.243 829.928C710.403 829.72 710.481 829.472 710.475 829.184H712.275C712.297 829.797 712.15 830.325 711.835 830.768C711.526 831.211 711.115 831.552 710.603 831.792C710.091 832.032 709.542 832.152 708.955 832.152ZM717.549 832.152C716.685 832.152 715.944 831.963 715.325 831.584C714.706 831.2 714.232 830.667 713.901 829.984C713.576 829.301 713.413 828.509 713.413 827.608C713.413 826.659 713.581 825.848 713.917 825.176C714.253 824.504 714.72 823.992 715.317 823.64C715.914 823.283 716.602 823.104 717.381 823.104C718.154 823.104 718.802 823.248 719.325 823.536C719.853 823.819 720.248 824.2 720.509 824.68C720.77 825.155 720.89 825.685 720.869 826.272H719.053C719.048 826.037 719.01 825.824 718.941 825.632C718.872 825.435 718.768 825.269 718.629 825.136C718.496 824.997 718.325 824.891 718.117 824.816C717.909 824.741 717.666 824.704 717.389 824.704C716.642 824.699 716.112 824.955 715.797 825.472C715.488 825.989 715.333 826.688 715.333 827.568C715.333 828.571 715.52 829.32 715.893 829.816C716.272 830.307 716.861 830.555 717.661 830.56C717.848 830.56 718.05 830.507 718.269 830.4C718.493 830.288 718.682 830.131 718.837 829.928C718.997 829.72 719.074 829.472 719.069 829.184H720.869C720.89 829.797 720.744 830.325 720.429 830.768C720.12 831.211 719.709 831.552 719.197 831.792C718.685 832.032 718.136 832.152 717.549 832.152ZM725.999 832.12C725.193 832.12 724.492 831.947 723.895 831.6C723.297 831.253 722.833 830.744 722.503 830.072C722.172 829.395 722.007 828.565 722.007 827.584C722.007 826.656 722.18 825.856 722.527 825.184C722.879 824.512 723.359 823.997 723.967 823.64C724.575 823.277 725.263 823.096 726.031 823.096C726.863 823.096 727.575 823.277 728.167 823.64C728.764 823.997 729.223 824.512 729.543 825.184C729.863 825.856 730.023 826.656 730.023 827.584C730.023 828.565 729.844 829.395 729.487 830.072C729.135 830.744 728.655 831.253 728.047 831.6C727.439 831.947 726.756 832.12 725.999 832.12ZM726.031 830.512C726.644 830.512 727.145 830.283 727.535 829.824C727.924 829.365 728.119 828.619 728.119 827.584C728.119 826.624 727.929 825.904 727.551 825.424C727.172 824.944 726.655 824.704 725.999 824.704C725.385 824.704 724.884 824.941 724.495 825.416C724.111 825.891 723.919 826.613 723.919 827.584C723.919 828.571 724.113 829.307 724.503 829.792C724.897 830.272 725.407 830.512 726.031 830.512ZM734.296 832.176C733.539 832.176 732.931 831.912 732.472 831.384C732.014 830.856 731.784 830.099 731.784 829.112V823.264H733.672V828.608C733.672 829.035 733.72 829.387 733.816 829.664C733.912 829.941 734.064 830.144 734.272 830.272C734.48 830.4 734.75 830.464 735.08 830.464C735.48 830.464 735.84 830.349 736.16 830.12C736.486 829.885 736.715 829.621 736.848 829.328V823.264H738.736V832H737.128L736.912 828.704L737.056 829.368C736.992 829.848 736.864 830.301 736.672 830.728C736.486 831.155 736.2 831.504 735.816 831.776C735.438 832.043 734.931 832.176 734.296 832.176ZM741.114 832V823.272H742.73L742.938 826.56L742.802 825.896C742.866 825.416 742.992 824.963 743.178 824.536C743.37 824.104 743.656 823.755 744.034 823.488C744.413 823.221 744.92 823.088 745.554 823.088C746.381 823.088 747.021 823.347 747.474 823.864C747.928 824.376 748.154 825.16 748.154 826.216V832H746.266V826.872C746.266 826.371 746.216 825.968 746.114 825.664C746.018 825.36 745.861 825.141 745.642 825.008C745.424 824.869 745.133 824.8 744.77 824.8C744.376 824.8 744.016 824.917 743.69 825.152C743.37 825.381 743.141 825.643 743.002 825.936V832H741.114ZM752.802 832.128C752.108 832.128 751.567 831.952 751.178 831.6C750.794 831.243 750.602 830.733 750.602 830.072V825.656C750.602 825.48 750.639 825.323 750.714 825.184C750.788 825.04 750.898 824.949 751.042 824.912L750.602 823.616V823.384L751.026 820.768H752.466V829.6C752.466 829.909 752.532 830.125 752.666 830.248C752.804 830.371 753.06 830.432 753.434 830.432C753.674 830.432 753.895 830.432 754.098 830.432C754.3 830.427 754.484 830.421 754.65 830.416V832.024C754.372 832.072 754.068 832.101 753.738 832.112C753.407 832.123 753.095 832.128 752.802 832.128ZM749.458 824.912V823.272H754.666V824.912H749.458Z" fill="white"/>
<line x1="166" y1="780.5" x2="395" y2="780.5" stroke="white"/>
<line x1="430" y1="780.5" x2="659" y2="780.5" stroke="white"/>
<defs>
<filter id="filter0_f_90_27" x="57.2002" y="128.382" width="615.536" height="480.328" filterUnits="userSpaceOnUse" color-interpolation-filters="sRGB">
<feFlood flood-opacity="0" result="BackgroundImageFix"/>
<feBlend mode="normal" in="SourceGraphic" in2="BackgroundImageFix" result="shape"/>
<feGaussianBlur stdDeviation="3" result="effect1_foregroundBlur_90_27"/>
</filter>
</defs>
</svg>
