<svg xmlns="http://www.w3.org/2000/svg" fill="none" viewBox="30.559200000000004 15.457985257985259 149.124 50.98280098280098" style="max-height: 500px" width="149.124" height="50.98280098280098">
<rect fill="white" height="82.0758" width="204"/>
<path fill="black" d="M144.413 30.9271C145.826 30.9271 147.195 31.2617 148.521 31.9308C149.847 32.5875 150.856 33.4424 151.55 34.4956C152.219 35.4993 152.665 36.6702 152.889 38.0084C153.087 38.9253 153.186 40.3874 153.186 42.3947H138.596C138.658 44.4144 139.135 46.0375 140.027 47.2642C140.919 48.4785 142.301 49.0856 144.172 49.0856C145.919 49.0856 147.313 48.5095 148.354 47.3571C148.948 46.688 149.37 45.9136 149.617 45.0339H152.907C152.82 45.7649 152.529 46.5827 152.034 47.4872C151.55 48.3794 151.005 49.1104 150.398 49.6804C149.382 50.6717 148.124 51.3407 146.625 51.6877C145.82 51.8859 144.909 51.9851 143.893 51.9851C141.415 51.9851 139.315 51.0867 137.592 49.2901C135.87 47.4811 135.009 44.9534 135.009 41.707C135.009 38.5102 135.876 35.9144 137.611 33.9195C139.346 31.9246 141.613 30.9271 144.413 30.9271ZM149.747 39.7369C149.611 38.2872 149.295 37.1286 148.8 36.2613C147.883 34.6505 146.352 33.8451 144.209 33.8451C142.672 33.8451 141.384 34.4027 140.343 35.5179C139.302 36.6206 138.751 38.027 138.689 39.7369H149.747Z"/>
<path fill="black" d="M163.148 30.9271C164.56 30.9271 165.93 31.2617 167.255 31.9308C168.581 32.5875 169.591 33.4424 170.285 34.4956C170.954 35.4993 171.4 36.6702 171.623 38.0084C171.821 38.9253 171.921 40.3874 171.921 42.3947H157.331C157.392 44.4144 157.87 46.0375 158.762 47.2642C159.654 48.4785 161.035 49.0856 162.906 49.0856C164.653 49.0856 166.047 48.5095 167.088 47.3571C167.683 46.688 168.104 45.9136 168.352 45.0339H171.642C171.555 45.7649 171.264 46.5827 170.768 47.4872C170.285 48.3794 169.74 49.1104 169.133 49.6804C168.117 50.6717 166.859 51.3407 165.36 51.6877C164.554 51.8859 163.644 51.9851 162.628 51.9851C160.149 51.9851 158.049 51.0867 156.327 49.2901C154.605 47.4811 153.743 44.9534 153.743 41.707C153.743 38.5102 154.611 35.9144 156.345 33.9195C158.08 31.9246 160.348 30.9271 163.148 30.9271ZM168.482 39.7369C168.346 38.2872 168.03 37.1286 167.534 36.2613C166.617 34.6505 165.087 33.8451 162.943 33.8451C161.407 33.8451 160.118 34.4027 159.078 35.5179C158.037 36.6206 157.485 38.027 157.423 39.7369H168.482Z"/>
<path fill="black" d="M133.744 30.9457H137.443C136.972 32.2219 135.925 35.1337 134.302 39.6811C133.087 43.1009 132.071 45.8889 131.254 48.0448C129.321 53.125 127.958 56.2227 127.165 57.3378C126.372 58.453 125.009 59.0106 123.076 59.0106C122.605 59.0106 122.239 58.992 121.979 58.9548C121.731 58.9176 121.422 58.8495 121.05 58.7504V55.7023C121.632 55.8633 122.054 55.9625 122.314 55.9996C122.574 56.0368 122.803 56.0554 123.001 56.0554C123.621 56.0554 124.073 55.9501 124.358 55.7394C124.656 55.5412 124.903 55.2934 125.102 54.996C125.164 54.8969 125.387 54.3889 125.771 53.4719C126.155 52.555 126.434 51.8735 126.607 51.4275L119.247 30.9457H123.039L128.373 47.1527L133.744 30.9457Z"/>
<path fill="black" d="M111.066 48.6953C113.284 48.6953 114.802 47.859 115.62 46.1862C116.45 44.5011 116.865 42.6301 116.865 40.5733C116.865 38.7147 116.568 37.203 115.973 36.0383C115.031 34.2044 113.408 33.2875 111.103 33.2875C109.059 33.2875 107.572 34.0682 106.643 35.6294C105.713 37.1906 105.249 39.074 105.249 41.2795C105.249 43.3983 105.713 45.164 106.643 46.5765C107.572 47.9891 109.047 48.6953 111.066 48.6953ZM111.196 30.3695C113.761 30.3695 115.93 31.2245 117.701 32.9344C119.473 34.6443 120.359 37.1596 120.359 40.4803C120.359 43.6895 119.579 46.3411 118.017 48.4351C116.456 50.5292 114.034 51.5762 110.75 51.5762C108.012 51.5762 105.837 50.6531 104.227 48.8069C102.616 46.9483 101.81 44.4577 101.81 41.3353C101.81 37.9898 102.659 35.3258 104.357 33.3433C106.054 31.3608 108.334 30.3695 111.196 30.3695Z"/>
<path fill="black" d="M97.8301 23.5485H101.176V50.8513H97.8301V23.5485Z"/>
<path fill="black" d="M87.9951 48.6024C89.5563 48.6024 90.8511 47.9519 91.8795 46.6509C92.9204 45.3375 93.4408 43.3797 93.4408 40.7777C93.4408 39.1917 93.2115 37.8287 92.7531 36.6888C91.8857 34.4956 90.2997 33.3991 87.9951 33.3991C85.678 33.3991 84.092 34.5576 83.237 36.8746C82.7786 38.1137 82.5494 39.6873 82.5494 41.5955C82.5494 43.1319 82.7786 44.4391 83.237 45.5171C84.1044 47.574 85.6904 48.6024 87.9951 48.6024ZM79.334 31.0386H82.5865V33.6778C83.2556 32.7733 83.9867 32.0733 84.7797 31.5776C85.9072 30.8342 87.233 30.4625 88.7571 30.4625C91.0122 30.4625 92.9266 31.3298 94.5002 33.0645C96.0738 34.7868 96.8606 37.2526 96.8606 40.4617C96.8606 44.7985 95.7268 47.8961 93.4593 49.7547C92.022 50.9319 90.3493 51.5204 88.4411 51.5204C86.9419 51.5204 85.6842 51.1921 84.6682 50.5353C84.0734 50.1636 83.4105 49.5255 82.6795 48.621V58.7875H79.334V31.0386Z"/>
<path fill="black" d="M70.6142 30.1093C72.7082 30.1093 74.4181 30.6607 75.7439 31.7635C77.0821 32.8539 77.7512 34.6691 77.7512 37.2092V50.8513H72.3241V38.5288C72.3241 37.4632 72.1816 36.6454 71.8966 36.0754C71.3762 35.0346 70.385 34.5142 68.9229 34.5142C67.1262 34.5142 65.8933 35.2762 65.2242 36.8003C64.8773 37.6057 64.7038 38.6341 64.7038 39.8856V50.8513H59.4254V30.6297H64.5366V33.5849C65.2181 32.5441 65.8624 31.7945 66.4695 31.336C67.5599 30.5182 68.9415 30.1093 70.6142 30.1093Z"/>
<path fill="black" d="M57.2851 28.1764H51.9137V23.2883H57.2851V28.1764ZM51.9137 30.5926H57.2851V50.8513H51.9137V30.5926Z"/>
<path fill="black" d="M32.1166 23.1953H57.3148V29.1429H32.1166L32.1166 34.1983L49.8105 34.2354V39.8484H32.1166V45.3499V50.8513V23.1953Z"/>
<path fill="black" d="M32.1166 45.3499V50.7584H37.7667V45.3499H32.1166Z"/>
</svg>